<?xml version="1.0" encoding="UTF-8"?>
<svg xmlns="http://www.w3.org/2000/svg" viewBox="0 0 774 774" width="774" height="774">
  <rect width="100%" height="100%" fill="#89b4fa"/>
  <path d="M 272.7 299.7 Q 204.8 386.7 252.6 486.2" fill="none" stroke="#f5c2e7" stroke-width="2.51" stroke-linecap="round"/>
<path d="M 356.7 285.5 Q 305.8 426.4 435.7 501.1" fill="none" stroke="#f5c2e7" stroke-width="2.63" stroke-linecap="round"/>
<path d="M 367.3 280.0 Q 369.5 454.9 532.8 517.8" fill="none" stroke="#f5c2e7" stroke-width="2.63" stroke-linecap="round"/>
<path d="M 564.1 258.0 Q 545.3 435.2 383.0 508.6" fill="none" stroke="#f5c2e7" stroke-width="5.42" stroke-linecap="round"/>
<circle cx="185.8" cy="194.4" r="57.7" fill="none" stroke="#f5c2e7" stroke-width="11.5"/>
<circle cx="185.8" cy="194.4" r="43.3" fill="none" stroke="#f5c2e7" stroke-width="11.5"/>
<circle cx="185.8" cy="194.4" r="28.8" fill="none" stroke="#f5c2e7" stroke-width="11.5"/>
<circle cx="185.8" cy="194.4" r="14.4" fill="none" stroke="#f5c2e7" stroke-width="11.5"/>
<circle cx="279.9" cy="232.7" r="57.7" fill="none" stroke="#f5c2e7" stroke-width="15.4"/>
<circle cx="279.9" cy="232.7" r="38.5" fill="none" stroke="#f5c2e7" stroke-width="15.4"/>
<circle cx="279.9" cy="232.7" r="19.2" fill="none" stroke="#f5c2e7" stroke-width="15.4"/>
<circle cx="340.8" cy="241.8" r="39.8" fill="none" stroke="#f5c2e7" stroke-width="10.6"/>
<circle cx="340.8" cy="241.8" r="26.6" fill="none" stroke="#f5c2e7" stroke-width="10.6"/>
<circle cx="340.8" cy="241.8" r="13.3" fill="none" stroke="#f5c2e7" stroke-width="10.6"/>
<circle cx="404.6" cy="230.1" r="43.7" fill="#585b70"/>
<circle cx="488.2" cy="237.6" r="43.7" fill="#585b70"/>
<circle cx="597.0" cy="212.5" r="56.1" fill="#f5c2e7"/>
<circle cx="244.4" cy="562.5" r="76.8" fill="#1e1e2e"/>
<circle cx="339.0" cy="569.5" r="64.3" fill="none" stroke="#a6e3a1" stroke-width="17.2"/>
<circle cx="339.0" cy="569.5" r="42.9" fill="none" stroke="#a6e3a1" stroke-width="17.2"/>
<circle cx="339.0" cy="569.5" r="21.4" fill="none" stroke="#a6e3a1" stroke-width="17.2"/>
<circle cx="460.0" cy="567.5" r="70.7" fill="#1e1e2e"/>
<circle cx="561.1" cy="558.4" r="42.4" fill="none" stroke="#89dceb" stroke-width="11.3"/>
<circle cx="561.1" cy="558.4" r="28.3" fill="none" stroke="#89dceb" stroke-width="11.3"/>
<circle cx="561.1" cy="558.4" r="14.1" fill="none" stroke="#89dceb" stroke-width="11.3"/>
</svg>