<?xml version="1.0" encoding="UTF-8"?>
<svg xmlns="http://www.w3.org/2000/svg" viewBox="0 0 774 774" width="774" height="774">
  <rect width="100%" height="100%" fill="#eba0ac"/>
  <path d="M 447.1 480.4 Q 475.7 539.7 523.2 494.1" fill="none" stroke="#f38ba8" stroke-width="2.75" stroke-linecap="round"/>
<path d="M 271.7 170.7 Q 205.8 156.4 217.8 222.8" fill="none" stroke="#74c7ec" stroke-width="2.99" stroke-linecap="round"/>
<path d="M 310.8 173.5 Q 377.7 357.3 539.4 467.4" fill="none" stroke="#74c7ec" stroke-width="3.11" stroke-linecap="round"/>
<path d="M 302.6 178.0 Q 264.0 336.9 394.3 435.7" fill="none" stroke="#74c7ec" stroke-width="3.11" stroke-linecap="round"/>
<path d="M 302.6 177.9 Q 309.0 323.8 396.2 440.8" fill="none" stroke="#74c7ec" stroke-width="3.11" stroke-linecap="round"/>
<path d="M 460.4 367.8 Q 354.3 361.9 423.6 442.4" fill="none" stroke="#89dceb" stroke-width="2.75" stroke-linecap="round"/>
<path d="M 320.8 203.4 Q 259.8 179.1 225.0 234.7" fill="none" stroke="#f38ba8" stroke-width="3.11" stroke-linecap="round"/>
<path d="M 365.6 218.3 Q 411.5 371.8 541.0 466.2" fill="none" stroke="#f38ba8" stroke-width="3.24" stroke-linecap="round"/>
<path d="M 354.8 223.0 Q 300.8 344.8 399.4 434.3" fill="none" stroke="#f38ba8" stroke-width="3.24" stroke-linecap="round"/>
<path d="M 361.6 220.6 Q 385.2 441.8 545.5 595.9" fill="none" stroke="#f38ba8" stroke-width="2.99" stroke-linecap="round"/>
<path d="M 354.8 223.0 Q 340.6 339.2 400.7 439.5" fill="none" stroke="#f38ba8" stroke-width="3.24" stroke-linecap="round"/>
<circle cx="195.4" cy="244.4" r="31.1" fill="#89dceb"/>
<circle cx="566.1" cy="501.8" r="34.8" fill="none" stroke="#f38ba8" stroke-width="13.9"/>
<circle cx="566.1" cy="501.8" r="17.4" fill="none" stroke="#f38ba8" stroke-width="13.9"/>
<circle cx="418.4" cy="336.7" r="29.4" fill="#74c7ec"/>
<circle cx="200.4" cy="207.4" r="23.5" fill="none" stroke="#74c7ec" stroke-width="9.4"/>
<circle cx="200.4" cy="207.4" r="11.7" fill="none" stroke="#74c7ec" stroke-width="9.4"/>
<circle cx="407.7" cy="473.4" r="34.3" fill="none" stroke="#f38ba8" stroke-width="9.1"/>
<circle cx="407.7" cy="473.4" r="22.8" fill="none" stroke="#f38ba8" stroke-width="9.1"/>
<circle cx="407.7" cy="473.4" r="11.4" fill="none" stroke="#f38ba8" stroke-width="9.1"/>
<circle cx="473.4" cy="341.5" r="29.4" fill="#89dceb"/>
<circle cx="348.7" cy="194.3" r="29.4" fill="#f38ba8"/>
<circle cx="558.8" cy="622.9" r="25.8" fill="none" stroke="#89dceb" stroke-width="6.9"/>
<circle cx="558.8" cy="622.9" r="17.2" fill="none" stroke="#89dceb" stroke-width="6.9"/>
<circle cx="558.8" cy="622.9" r="8.6" fill="none" stroke="#89dceb" stroke-width="6.9"/>
<circle cx="391.0" cy="570.3" r="29.4" fill="#74c7ec"/>
<circle cx="292.8" cy="150.3" r="26.1" fill="none" stroke="#74c7ec" stroke-width="5.2"/>
<circle cx="292.8" cy="150.3" r="19.6" fill="none" stroke="#74c7ec" stroke-width="5.2"/>
<circle cx="292.8" cy="150.3" r="13.0" fill="none" stroke="#74c7ec" stroke-width="5.2"/>
<circle cx="292.8" cy="150.3" r="6.5" fill="none" stroke="#74c7ec" stroke-width="5.2"/>
<circle cx="408.0" cy="474.1" r="28.2" fill="none" stroke="#f38ba8" stroke-width="11.3"/>
<circle cx="408.0" cy="474.1" r="14.1" fill="none" stroke="#f38ba8" stroke-width="11.3"/>
</svg>