<?xml version="1.0" encoding="UTF-8"?>
<svg xmlns="http://www.w3.org/2000/svg" viewBox="0 0 774 774" width="774" height="774">
  <rect width="100%" height="100%" fill="#b4befe"/>
  <path d="M 419.4 577.4 Q 487.2 504.9 539.2 589.4" fill="none" stroke="#eba0ac" stroke-width="5.72" stroke-linecap="round"/>
<path d="M 348.4 527.8 Q 194.1 418.4 203.8 229.4" fill="none" stroke="#eba0ac" stroke-width="5.72" stroke-linecap="round"/>
<path d="M 330.6 542.3 Q 233.2 559.4 224.2 460.9" fill="none" stroke="#eba0ac" stroke-width="5.72" stroke-linecap="round"/>
<path d="M 320.8 578.3 Q 284.3 631.1 236.4 588.3" fill="none" stroke="#eba0ac" stroke-width="5.72" stroke-linecap="round"/>
<circle cx="370.1" cy="572.5" r="42.5" fill="none" stroke="#eba0ac" stroke-width="11.3"/>
<circle cx="370.1" cy="572.5" r="28.4" fill="none" stroke="#eba0ac" stroke-width="11.3"/>
<circle cx="370.1" cy="572.5" r="14.2" fill="none" stroke="#eba0ac" stroke-width="11.3"/>
<circle cx="178.9" cy="595.1" r="51.5" fill="none" stroke="#1e1e2e" stroke-width="10.3"/>
<circle cx="178.9" cy="595.1" r="38.6" fill="none" stroke="#1e1e2e" stroke-width="10.3"/>
<circle cx="178.9" cy="595.1" r="25.8" fill="none" stroke="#1e1e2e" stroke-width="10.3"/>
<circle cx="178.9" cy="595.1" r="12.9" fill="none" stroke="#1e1e2e" stroke-width="10.3"/>
<circle cx="178.9" cy="178.0" r="54.2" fill="#313244"/>
<circle cx="596.0" cy="595.1" r="45.7" fill="none" stroke="#313244" stroke-width="18.3"/>
<circle cx="596.0" cy="595.1" r="22.8" fill="none" stroke="#313244" stroke-width="18.3"/>
<circle cx="178.9" cy="178.0" r="45.7" fill="none" stroke="#11111b" stroke-width="18.3"/>
<circle cx="178.9" cy="178.0" r="22.8" fill="none" stroke="#11111b" stroke-width="18.3"/>
<circle cx="178.9" cy="426.2" r="57.1" fill="#313244"/>
<circle cx="596.0" cy="393.1" r="31.5" fill="none" stroke="#f5c2e7" stroke-width="8.4"/>
<circle cx="596.0" cy="393.1" r="21.0" fill="none" stroke="#f5c2e7" stroke-width="8.4"/>
<circle cx="596.0" cy="393.1" r="10.5" fill="none" stroke="#f5c2e7" stroke-width="8.4"/>
<circle cx="420.6" cy="178.0" r="46.5" fill="none" stroke="#eba0ac" stroke-width="12.4"/>
<circle cx="420.6" cy="178.0" r="31.0" fill="none" stroke="#eba0ac" stroke-width="12.4"/>
<circle cx="420.6" cy="178.0" r="15.5" fill="none" stroke="#eba0ac" stroke-width="12.4"/>
<circle cx="596.0" cy="178.0" r="36.7" fill="#313244"/>
</svg>