<?xml version="1.0" encoding="UTF-8"?>
<svg xmlns="http://www.w3.org/2000/svg" viewBox="0 0 774 774" width="774" height="774">
  <rect width="100%" height="100%" fill="#89dceb"/>
  <path d="M 234.8 357.4 Q 300.4 342.5 261.2 287.8" fill="none" stroke="#fab387" stroke-width="2.51" stroke-linecap="round"/>
<path d="M 511.4 248.7 Q 508.8 397.9 421.3 518.8" fill="none" stroke="#74c7ec" stroke-width="2.63" stroke-linecap="round"/>
<path d="M 493.6 239.6 Q 456.4 356.1 357.0 427.6" fill="none" stroke="#74c7ec" stroke-width="2.75" stroke-linecap="round"/>
<path d="M 345.4 541.5 Q 342.6 466.5 269.0 481.1" fill="none" stroke="#74c7ec" stroke-width="2.63" stroke-linecap="round"/>
<path d="M 388.0 221.7 Q 311.5 305.6 334.7 416.8" fill="none" stroke="#89b4fa" stroke-width="2.87" stroke-linecap="round"/>
<path d="M 366.5 208.1 Q 289.5 214.4 271.3 289.4" fill="none" stroke="#89b4fa" stroke-width="2.75" stroke-linecap="round"/>
<path d="M 373.1 214.3 Q 283.5 268.1 254.9 368.6" fill="none" stroke="#89b4fa" stroke-width="2.87" stroke-linecap="round"/>
<circle cx="399.5" cy="179.8" r="38.7" fill="none" stroke="#89b4fa" stroke-width="7.7"/>
<circle cx="399.5" cy="179.8" r="29.0" fill="none" stroke="#89b4fa" stroke-width="7.7"/>
<circle cx="399.5" cy="179.8" r="19.3" fill="none" stroke="#89b4fa" stroke-width="7.7"/>
<circle cx="399.5" cy="179.8" r="9.7" fill="none" stroke="#89b4fa" stroke-width="7.7"/>
<circle cx="532.2" cy="186.5" r="65.6" fill="#74c7ec"/>
<circle cx="608.0" cy="301.3" r="39.2" fill="#fab387"/>
<circle cx="568.3" cy="423.9" r="33.6" fill="none" stroke="#89b4fa" stroke-width="9.0"/>
<circle cx="568.3" cy="423.9" r="22.4" fill="none" stroke="#89b4fa" stroke-width="9.0"/>
<circle cx="568.3" cy="423.9" r="11.2" fill="none" stroke="#89b4fa" stroke-width="9.0"/>
<circle cx="513.6" cy="526.1" r="39.2" fill="#74c7ec"/>
<circle cx="399.5" cy="584.2" r="68.9" fill="#74c7ec"/>
<circle cx="316.5" cy="483.4" r="69.0" fill="#fab387"/>
<circle cx="206.5" cy="431.8" r="79.6" fill="#fab387"/>
<circle cx="239.1" cy="317.0" r="42.4" fill="#fab387"/>
<circle cx="288.4" cy="216.1" r="76.7" fill="#181825"/>
</svg>