<?xml version="1.0" encoding="UTF-8"?>
<svg xmlns="http://www.w3.org/2000/svg" viewBox="0 0 774 774" width="774" height="774">
  <defs>
  <filter id="noiseFilter" x="0%" y="0%" width="100%" height="100%">
    <feTurbulence type="fractalNoise" baseFrequency="0.3307" numOctaves="3" result="noise"/>
    <feColorMatrix type="matrix" values="0 0 0 0 0.03  0 0 0 0 0.05  0 0 0 0 0.08  0 0 0 0.15 0"/>
  </filter>
  <radialGradient id="vignette" cx="50%" cy="50%" r="70%" fx="50%" fy="50%">
    <stop offset="0%" stop-color="#000000" stop-opacity="0"/>
    <stop offset="60%" stop-color="#000000" stop-opacity="0"/>
    <stop offset="100%" stop-color="#000000" stop-opacity="0.7"/>
  </radialGradient>
  <filter id="softGlow" x="-100%" y="-100%" width="300%" height="300%">
    <feGaussianBlur in="SourceGraphic" stdDeviation="12.1" result="blur"/>
    <feMerge>
      <feMergeNode in="blur"/>
      <feMergeNode in="blur"/>
      <feMergeNode in="SourceGraphic"/>
    </feMerge>
  </filter>
  <filter id="intenseGlow" x="-150%" y="-150%" width="400%" height="400%">
    <feGaussianBlur in="SourceGraphic" stdDeviation="18.1" result="blur"/>
    <feMerge>
      <feMergeNode in="blur"/>
      <feMergeNode in="blur"/>
      <feMergeNode in="blur"/>
      <feMergeNode in="SourceGraphic"/>
    </feMerge>
  </filter>
  <filter id="edgeGlow" x="-50%" y="-50%" width="200%" height="200%">
    <feGaussianBlur in="SourceGraphic" stdDeviation="6.0" result="blur"/>
    <feMerge>
      <feMergeNode in="blur"/>
      <feMergeNode in="SourceGraphic"/>
    </feMerge>
  </filter>
  <radialGradient id="nodeGrad_c0_0" cx="35%" cy="35%" r="65%" fx="35%" fy="35%">
    <stop offset="0%" stop-color="#75d3ef"/>
    <stop offset="100%" stop-color="#0babda"/>
  </radialGradient>
  <radialGradient id="glowGrad_c0_0">
    <stop offset="0%" stop-color="#3f80bf" stop-opacity="0.25"/>
    <stop offset="70%" stop-color="#3f80bf" stop-opacity="0.08"/>
    <stop offset="100%" stop-color="#3f80bf" stop-opacity="0"/>
  </radialGradient>
  <radialGradient id="nodeGrad_c0_1" cx="35%" cy="35%" r="65%" fx="35%" fy="35%">
    <stop offset="0%" stop-color="#75c5ef"/>
    <stop offset="100%" stop-color="#0b92da"/>
  </radialGradient>
  <radialGradient id="glowGrad_c0_1">
    <stop offset="0%" stop-color="#3f70bf" stop-opacity="0.25"/>
    <stop offset="70%" stop-color="#3f70bf" stop-opacity="0.08"/>
    <stop offset="100%" stop-color="#3f70bf" stop-opacity="0"/>
  </radialGradient>
  <radialGradient id="nodeGrad_c0_2" cx="35%" cy="35%" r="65%" fx="35%" fy="35%">
    <stop offset="0%" stop-color="#75e9ef"/>
    <stop offset="100%" stop-color="#0bcfda"/>
  </radialGradient>
  <radialGradient id="glowGrad_c0_2">
    <stop offset="0%" stop-color="#3f99bf" stop-opacity="0.25"/>
    <stop offset="70%" stop-color="#3f99bf" stop-opacity="0.08"/>
    <stop offset="100%" stop-color="#3f99bf" stop-opacity="0"/>
  </radialGradient>
  <radialGradient id="nodeGrad_c0_3" cx="35%" cy="35%" r="65%" fx="35%" fy="35%">
    <stop offset="0%" stop-color="#55abdd"/>
    <stop offset="100%" stop-color="#1676ad"/>
  </radialGradient>
  <radialGradient id="glowGrad_c0_3">
    <stop offset="0%" stop-color="#3f85bf" stop-opacity="0.25"/>
    <stop offset="70%" stop-color="#3f85bf" stop-opacity="0.08"/>
    <stop offset="100%" stop-color="#3f85bf" stop-opacity="0"/>
  </radialGradient>
  <radialGradient id="nodeGrad_c0_4" cx="35%" cy="35%" r="65%" fx="35%" fy="35%">
    <stop offset="0%" stop-color="#75daef"/>
    <stop offset="100%" stop-color="#0bb6da"/>
  </radialGradient>
  <radialGradient id="glowGrad_c0_4">
    <stop offset="0%" stop-color="#3f88bf" stop-opacity="0.25"/>
    <stop offset="70%" stop-color="#3f88bf" stop-opacity="0.08"/>
    <stop offset="100%" stop-color="#3f88bf" stop-opacity="0"/>
  </radialGradient>
  <radialGradient id="nodeGrad_c0_5" cx="35%" cy="35%" r="65%" fx="35%" fy="35%">
    <stop offset="0%" stop-color="#75c9ef"/>
    <stop offset="100%" stop-color="#0b99da"/>
  </radialGradient>
  <radialGradient id="glowGrad_c0_5">
    <stop offset="0%" stop-color="#3f75bf" stop-opacity="0.25"/>
    <stop offset="70%" stop-color="#3f75bf" stop-opacity="0.08"/>
    <stop offset="100%" stop-color="#3f75bf" stop-opacity="0"/>
  </radialGradient>
  <radialGradient id="nodeGrad_c1_0" cx="35%" cy="35%" r="65%" fx="35%" fy="35%">
    <stop offset="0%" stop-color="#75e0ef"/>
    <stop offset="100%" stop-color="#0bbfda"/>
  </radialGradient>
  <radialGradient id="glowGrad_c1_0">
    <stop offset="0%" stop-color="#3f8ebf" stop-opacity="0.25"/>
    <stop offset="70%" stop-color="#3f8ebf" stop-opacity="0.08"/>
    <stop offset="100%" stop-color="#3f8ebf" stop-opacity="0"/>
  </radialGradient>
  <radialGradient id="nodeGrad_c1_1" cx="35%" cy="35%" r="65%" fx="35%" fy="35%">
    <stop offset="0%" stop-color="#75efea"/>
    <stop offset="100%" stop-color="#0bdad2"/>
  </radialGradient>
  <radialGradient id="glowGrad_c1_1">
    <stop offset="0%" stop-color="#3fa6bf" stop-opacity="0.25"/>
    <stop offset="70%" stop-color="#3fa6bf" stop-opacity="0.08"/>
    <stop offset="100%" stop-color="#3fa6bf" stop-opacity="0"/>
  </radialGradient>
  <radialGradient id="nodeGrad_c1_2" cx="35%" cy="35%" r="65%" fx="35%" fy="35%">
    <stop offset="0%" stop-color="#75d4ef"/>
    <stop offset="100%" stop-color="#0bacda"/>
  </radialGradient>
  <radialGradient id="glowGrad_c1_2">
    <stop offset="0%" stop-color="#3f82bf" stop-opacity="0.25"/>
    <stop offset="70%" stop-color="#3f82bf" stop-opacity="0.08"/>
    <stop offset="100%" stop-color="#3f82bf" stop-opacity="0"/>
  </radialGradient>
  <radialGradient id="nodeGrad_c1_3" cx="35%" cy="35%" r="65%" fx="35%" fy="35%">
    <stop offset="0%" stop-color="#75c4ef"/>
    <stop offset="100%" stop-color="#0b91da"/>
  </radialGradient>
  <radialGradient id="glowGrad_c1_3">
    <stop offset="0%" stop-color="#3f6fbf" stop-opacity="0.25"/>
    <stop offset="70%" stop-color="#3f6fbf" stop-opacity="0.08"/>
    <stop offset="100%" stop-color="#3f6fbf" stop-opacity="0"/>
  </radialGradient>
  <radialGradient id="nodeGrad_c1_4" cx="35%" cy="35%" r="65%" fx="35%" fy="35%">
    <stop offset="0%" stop-color="#75e8ef"/>
    <stop offset="100%" stop-color="#0bcdda"/>
  </radialGradient>
  <radialGradient id="glowGrad_c1_4">
    <stop offset="0%" stop-color="#3f98bf" stop-opacity="0.25"/>
    <stop offset="70%" stop-color="#3f98bf" stop-opacity="0.08"/>
    <stop offset="100%" stop-color="#3f98bf" stop-opacity="0"/>
  </radialGradient>
  <linearGradient id="edgeGrad_0" x1="70.8%" y1="76.6%" x2="63.2%" y2="76.6%">
    <stop offset="0%" stop-color="#2474f3"/>
    <stop offset="100%" stop-color="#2495f3"/>
  </linearGradient>
  <linearGradient id="edgeGrad_1" x1="52.9%" y1="58.1%" x2="72.0%" y2="73.0%">
    <stop offset="0%" stop-color="#249bf3"/>
    <stop offset="100%" stop-color="#2474f3"/>
  </linearGradient>
  <linearGradient id="edgeGrad_2" x1="28.9%" y1="76.6%" x2="46.8%" y2="76.6%">
    <stop offset="0%" stop-color="#248ef3"/>
    <stop offset="100%" stop-color="#2495f3"/>
  </linearGradient>
  <linearGradient id="edgeGrad_3" x1="29.8%" y1="23.4%" x2="70.8%" y2="23.4%">
    <stop offset="0%" stop-color="#2490f3"/>
    <stop offset="100%" stop-color="#2471f3"/>
  </linearGradient>
  <linearGradient id="edgeGrad_4" x1="29.6%" y1="23.4%" x2="70.8%" y2="23.4%">
    <stop offset="0%" stop-color="#2097cc"/>
    <stop offset="100%" stop-color="#2060cc"/>
  </linearGradient>
  <linearGradient id="edgeGrad_5" x1="63.2%" y1="76.6%" x2="70.8%" y2="76.6%">
    <stop offset="0%" stop-color="#2495f3"/>
    <stop offset="100%" stop-color="#2474f3"/>
  </linearGradient>
  <linearGradient id="edgeGrad_6" x1="52.9%" y1="58.1%" x2="72.3%" y2="73.2%">
    <stop offset="0%" stop-color="#249bf3"/>
    <stop offset="100%" stop-color="#247bf3"/>
  </linearGradient>
  <linearGradient id="edgeGrad_7" x1="46.8%" y1="76.6%" x2="28.9%" y2="76.6%">
    <stop offset="0%" stop-color="#2495f3"/>
    <stop offset="100%" stop-color="#248ef3"/>
  </linearGradient>
  <linearGradient id="edgeGrad_8" x1="70.8%" y1="23.4%" x2="29.8%" y2="23.4%">
    <stop offset="0%" stop-color="#2471f3"/>
    <stop offset="100%" stop-color="#2490f3"/>
  </linearGradient>
  <linearGradient id="edgeGrad_9" x1="25.3%" y1="29.3%" x2="38.8%" y2="70.9%">
    <stop offset="0%" stop-color="#2687b1"/>
    <stop offset="100%" stop-color="#267cb1"/>
  </linearGradient>
  <linearGradient id="edgeGrad_10" x1="70.8%" y1="23.4%" x2="29.8%" y2="23.4%">
    <stop offset="0%" stop-color="#1fc4ed"/>
    <stop offset="100%" stop-color="#1f8aed"/>
  </linearGradient>
  <linearGradient id="edgeGrad_11" x1="70.8%" y1="23.4%" x2="29.6%" y2="23.4%">
    <stop offset="0%" stop-color="#1bbfe7"/>
    <stop offset="100%" stop-color="#1ba9e7"/>
  </linearGradient>
  <linearGradient id="edgeGrad_12" x1="43.9%" y1="58.4%" x2="27.5%" y2="72.9%">
    <stop offset="0%" stop-color="#249bf3"/>
    <stop offset="100%" stop-color="#248ef3"/>
  </linearGradient>
  <linearGradient id="edgeGrad_13" x1="50.0%" y1="60.1%" x2="52.6%" y2="68.7%">
    <stop offset="0%" stop-color="#1f85d1"/>
    <stop offset="100%" stop-color="#1f80d1"/>
  </linearGradient>
  <linearGradient id="edgeGrad_14" x1="52.6%" y1="68.7%" x2="50.0%" y2="60.1%">
    <stop offset="0%" stop-color="#2475b8"/>
    <stop offset="100%" stop-color="#2479b8"/>
  </linearGradient>
  <linearGradient id="edgeGrad_15" x1="63.2%" y1="76.6%" x2="71.1%" y2="76.6%">
    <stop offset="0%" stop-color="#1a87e1"/>
    <stop offset="100%" stop-color="#1a6de1"/>
  </linearGradient>
  <linearGradient id="edgeGrad_16" x1="71.1%" y1="76.6%" x2="63.2%" y2="76.6%">
    <stop offset="0%" stop-color="#196ee4"/>
    <stop offset="100%" stop-color="#1988e4"/>
  </linearGradient>
  <linearGradient id="edgeGrad_17" x1="46.1%" y1="76.3%" x2="70.8%" y2="76.5%">
    <stop offset="0%" stop-color="#208bcc"/>
    <stop offset="100%" stop-color="#2062cc"/>
  </linearGradient>
  <linearGradient id="edgeGrad_18" x1="43.9%" y1="58.4%" x2="27.3%" y2="73.2%">
    <stop offset="0%" stop-color="#1a8ce0"/>
    <stop offset="100%" stop-color="#1aa5e0"/>
  </linearGradient>
  <linearGradient id="edgeGrad_19" x1="70.8%" y1="23.4%" x2="29.6%" y2="23.4%">
    <stop offset="0%" stop-color="#2060cb"/>
    <stop offset="100%" stop-color="#2097cb"/>
  </linearGradient>
  <linearGradient id="edgeGrad_20" x1="43.7%" y1="71.6%" x2="73.3%" y2="28.2%">
    <stop offset="0%" stop-color="#2089c9"/>
    <stop offset="100%" stop-color="#205fc9"/>
  </linearGradient>
  <linearGradient id="edgeGrad_21" x1="34.9%" y1="76.3%" x2="28.5%" y2="76.5%">
    <stop offset="0%" stop-color="#208bcc"/>
    <stop offset="100%" stop-color="#2099cc"/>
  </linearGradient>
  <linearGradient id="edgeGrad_22" x1="29.6%" y1="23.4%" x2="70.8%" y2="23.4%">
    <stop offset="0%" stop-color="#24b4f3"/>
    <stop offset="100%" stop-color="#24caf3"/>
  </linearGradient>
  <linearGradient id="edgeGrad_23" x1="28.5%" y1="76.6%" x2="46.8%" y2="76.6%">
    <stop offset="0%" stop-color="#1dadea"/>
    <stop offset="100%" stop-color="#1d8dea"/>
  </linearGradient>
  <linearGradient id="edgeGrad_24" x1="29.8%" y1="23.4%" x2="70.8%" y2="23.4%">
    <stop offset="0%" stop-color="#256fb4"/>
    <stop offset="100%" stop-color="#2598b4"/>
  </linearGradient>
  <linearGradient id="edgeGrad_25" x1="43.7%" y1="71.6%" x2="73.3%" y2="28.2%">
    <stop offset="0%" stop-color="#24a5f3"/>
    <stop offset="100%" stop-color="#24caf3"/>
  </linearGradient>
</defs>
  <!-- Background -->
  <rect width="100%" height="100%" fill="#000000"/>
  <!-- Noise texture overlay -->
  <rect width="100%" height="100%" filter="url(#noiseFilter)" opacity="1"/>
  <!-- Graph content -->
  <path d="M 548.3 592.6 Q 518.7 637.1 489.2 592.6" fill="none" stroke="url(#edgeGrad_0)" stroke-width="2.73" opacity="0.77" stroke-linecap="round" stroke-dasharray="30.2 7.6"/>
<path d="M 548.3 592.6 Q 518.7 635.7 489.2 592.6" fill="none" stroke="url(#edgeGrad_0)" stroke-width="2.73" opacity="0.83" stroke-linecap="round" stroke-dasharray="30.2 7.6"/>
<polygon points="489.2,592.6 495.8,596.3 490.2,600.1" fill="#2495f3" opacity="0.90"/>
<path d="M 409.1 449.9 Q 519.5 461.2 557.6 565.4" fill="none" stroke="url(#edgeGrad_1)" stroke-width="2.86" opacity="0.77" stroke-linecap="round" stroke-dasharray="30.2 7.6"/>
<path d="M 409.1 449.9 Q 518.5 462.4 557.6 565.4" fill="none" stroke="url(#edgeGrad_1)" stroke-width="2.86" opacity="0.83" stroke-linecap="round" stroke-dasharray="30.2 7.6"/>
<polygon points="557.6,565.4 552.0,560.1 558.4,557.7" fill="#2474f3" opacity="0.90"/>
<path d="M 223.7 592.6 Q 292.8 551.7 361.9 592.6" fill="none" stroke="url(#edgeGrad_2)" stroke-width="2.79" opacity="0.77" stroke-linecap="round" stroke-dasharray="30.2 7.6"/>
<path d="M 223.7 592.6 Q 292.8 553.2 361.9 592.6" fill="none" stroke="url(#edgeGrad_2)" stroke-width="2.79" opacity="0.83" stroke-linecap="round" stroke-dasharray="30.2 7.6"/>
<polygon points="361.9,592.6 354.3,592.1 357.7,586.2" fill="#2495f3" opacity="0.90"/>
<path d="M 231.0 181.4 Q 389.3 214.5 547.7 181.4" fill="none" stroke="url(#edgeGrad_3)" stroke-width="2.67" opacity="0.77" stroke-linecap="round" stroke-dasharray="30.2 7.6"/>
<path d="M 231.0 181.4 Q 389.3 215.9 547.7 181.4" fill="none" stroke="url(#edgeGrad_3)" stroke-width="2.67" opacity="0.83" stroke-linecap="round" stroke-dasharray="30.2 7.6"/>
<polygon points="547.7,181.4 541.8,186.1 540.4,179.5" fill="#2471f3" opacity="0.90"/>
<path d="M 229.1 181.4 Q 388.4 236.6 547.7 181.4" fill="none" stroke="url(#edgeGrad_4)" stroke-width="4.47" opacity="0.57" stroke-linecap="round" stroke-dasharray="18.1 9.1"/>
<polygon points="547.7,181.4 542.5,186.7 540.4,180.5" fill="#2060cc" opacity="0.67"/>
<path d="M 489.2 592.6 Q 518.7 552.6 548.3 592.6" fill="none" stroke="url(#edgeGrad_5)" stroke-width="2.82" opacity="0.77" stroke-linecap="round" stroke-dasharray="30.2 7.6"/>
<path d="M 489.2 592.6 Q 518.7 554.2 548.3 592.6" fill="none" stroke="url(#edgeGrad_5)" stroke-width="2.82" opacity="0.83" stroke-linecap="round" stroke-dasharray="30.2 7.6"/>
<polygon points="548.3,592.6 541.4,589.2 546.9,585.0" fill="#2474f3" opacity="0.90"/>
<path d="M 409.1 449.9 Q 499.0 489.4 559.4 566.8" fill="none" stroke="url(#edgeGrad_6)" stroke-width="2.78" opacity="0.77" stroke-linecap="round" stroke-dasharray="30.2 7.6"/>
<path d="M 409.1 449.9 Q 498.1 490.6 559.4 566.8" fill="none" stroke="url(#edgeGrad_6)" stroke-width="2.78" opacity="0.83" stroke-linecap="round" stroke-dasharray="30.2 7.6"/>
<polygon points="559.4,566.8 552.5,563.6 557.9,559.3" fill="#247bf3" opacity="0.90"/>
<path d="M 361.9 592.6 Q 292.8 665.7 223.7 592.6" fill="none" stroke="url(#edgeGrad_7)" stroke-width="2.66" opacity="0.77" stroke-linecap="round" stroke-dasharray="30.2 7.6"/>
<path d="M 361.9 592.6 Q 292.8 664.3 223.7 592.6" fill="none" stroke="url(#edgeGrad_7)" stroke-width="2.66" opacity="0.83" stroke-linecap="round" stroke-dasharray="30.2 7.6"/>
<polygon points="223.7,592.6 230.8,595.1 225.9,599.8" fill="#248ef3" opacity="0.90"/>
<path d="M 547.7 181.4 Q 389.3 147.8 231.0 181.4" fill="none" stroke="url(#edgeGrad_8)" stroke-width="2.66" opacity="0.77" stroke-linecap="round" stroke-dasharray="30.2 7.6"/>
<path d="M 547.7 181.4 Q 389.3 146.3 231.0 181.4" fill="none" stroke="url(#edgeGrad_8)" stroke-width="2.66" opacity="0.83" stroke-linecap="round" stroke-dasharray="30.2 7.6"/>
<polygon points="231.0,181.4 236.9,176.7 238.3,183.3" fill="#2490f3" opacity="0.90"/>
<path d="M 196.1 226.8 Q 191.0 406.3 300.2 548.8" fill="none" stroke="url(#edgeGrad_9)" stroke-width="3.84" opacity="0.48" stroke-linecap="round" stroke-dasharray="9.1 12.1"/>
<polygon points="300.2,548.8 293.9,545.7 298.9,541.9" fill="#267cb1" opacity="0.56"/>
<path d="M 547.8 181.4 Q 389.4 162.3 231.0 181.4" fill="none" stroke="url(#edgeGrad_10)" stroke-width="2.47" opacity="0.71" stroke-linecap="round" stroke-dasharray="30.2 7.6"/>
<path d="M 547.8 181.4 Q 389.4 161.0 231.0 181.4" fill="none" stroke="url(#edgeGrad_10)" stroke-width="2.47" opacity="0.77" stroke-linecap="round" stroke-dasharray="30.2 7.6"/>
<polygon points="231.0,181.4 237.1,177.3 237.9,183.9" fill="#1f8aed" opacity="0.84"/>
<path d="M 547.8 181.4 Q 388.5 139.5 229.1 181.4" fill="none" stroke="url(#edgeGrad_11)" stroke-width="2.44" opacity="0.67" stroke-linecap="round" stroke-dasharray="30.2 7.6"/>
<path d="M 547.8 181.4 Q 388.5 138.2 229.1 181.4" fill="none" stroke="url(#edgeGrad_11)" stroke-width="2.44" opacity="0.73" stroke-linecap="round" stroke-dasharray="30.2 7.6"/>
<polygon points="229.1,181.4 234.6,176.6 236.3,182.9" fill="#1ba9e7" opacity="0.79"/>
<path d="M 339.5 452.2 Q 308.6 544.8 213.0 564.5" fill="none" stroke="url(#edgeGrad_12)" stroke-width="2.81" opacity="0.77" stroke-linecap="round" stroke-dasharray="30.2 7.6"/>
<path d="M 339.5 452.2 Q 307.6 543.7 213.0 564.5" fill="none" stroke="url(#edgeGrad_12)" stroke-width="2.81" opacity="0.83" stroke-linecap="round" stroke-dasharray="30.2 7.6"/>
<polygon points="213.0,564.5 219.0,559.7 220.4,566.4" fill="#248ef3" opacity="0.90"/>
<path d="M 386.6 465.5 Q 465.9 477.4 406.9 531.7" fill="none" stroke="url(#edgeGrad_13)" stroke-width="5.00" opacity="0.59" stroke-linecap="round" stroke-dasharray="18.1 9.1"/>
<polygon points="406.9,531.7 409.6,524.6 414.2,529.6" fill="#1f80d1" opacity="0.69"/>
<path d="M 406.9 531.7 Q 344.4 514.6 386.6 465.5" fill="none" stroke="url(#edgeGrad_14)" stroke-width="4.11" opacity="0.50" stroke-linecap="round" stroke-dasharray="18.1 9.1"/>
<polygon points="386.6,465.5 384.9,472.4 380.0,468.2" fill="#2479b8" opacity="0.59"/>
<path d="M 489.2 592.6 Q 519.9 571.6 550.6 592.6" fill="none" stroke="url(#edgeGrad_15)" stroke-width="2.54" opacity="0.64" stroke-linecap="round" stroke-dasharray="30.2 7.6"/>
<path d="M 489.2 592.6 Q 519.9 573.0 550.6 592.6" fill="none" stroke="url(#edgeGrad_15)" stroke-width="2.54" opacity="0.70" stroke-linecap="round" stroke-dasharray="30.2 7.6"/>
<polygon points="550.6,592.6 543.2,591.7 546.9,586.2" fill="#1a6de1" opacity="0.75"/>
<path d="M 550.6 592.6 Q 519.9 622.1 489.2 592.6" fill="none" stroke="url(#edgeGrad_16)" stroke-width="2.55" opacity="0.65" stroke-linecap="round" stroke-dasharray="30.2 7.6"/>
<path d="M 550.6 592.6 Q 519.9 620.7 489.2 592.6" fill="none" stroke="url(#edgeGrad_16)" stroke-width="2.55" opacity="0.71" stroke-linecap="round" stroke-dasharray="30.2 7.6"/>
<polygon points="489.2,592.6 496.3,594.7 491.8,599.6" fill="#1988e4" opacity="0.76"/>
<path d="M 356.9 590.4 Q 453.1 529.6 548.3 592.2" fill="none" stroke="url(#edgeGrad_17)" stroke-width="4.60" opacity="0.57" stroke-linecap="round" stroke-dasharray="18.1 9.1"/>
<polygon points="548.3,592.2 540.9,591.3 544.5,585.8" fill="#2062cc" opacity="0.67"/>
<path d="M 339.5 452.2 Q 287.1 522.6 211.0 566.3" fill="none" stroke="url(#edgeGrad_18)" stroke-width="2.61" opacity="0.64" stroke-linecap="round" stroke-dasharray="30.2 7.6"/>
<path d="M 339.5 452.2 Q 286.1 521.5 211.0 566.3" fill="none" stroke="url(#edgeGrad_18)" stroke-width="2.61" opacity="0.69" stroke-linecap="round" stroke-dasharray="30.2 7.6"/>
<polygon points="211.0,566.3 215.0,560.1 218.4,565.9" fill="#1aa5e0" opacity="0.75"/>
<path d="M 547.7 181.4 Q 388.4 117.6 229.1 181.4" fill="none" stroke="url(#edgeGrad_19)" stroke-width="4.22" opacity="0.57" stroke-linecap="round" stroke-dasharray="18.1 9.1"/>
<polygon points="229.1,181.4 233.9,176.0 236.3,182.0" fill="#2097cb" opacity="0.67"/>
<path d="M 338.0 554.3 Q 497.5 417.0 567.3 218.5" fill="none" stroke="url(#edgeGrad_20)" stroke-width="4.56" opacity="0.56" stroke-linecap="round" stroke-dasharray="18.1 9.1"/>
<polygon points="567.3,218.5 568.2,225.8 562.0,223.6" fill="#205fc9" opacity="0.66"/>
<path d="M 270.2 590.9 Q 246.3 627.7 220.9 591.8" fill="none" stroke="url(#edgeGrad_21)" stroke-width="4.47" opacity="0.57" stroke-linecap="round" stroke-dasharray="18.1 9.1"/>
<polygon points="220.9,591.8 227.4,595.3 222.0,599.1" fill="#2099cc" opacity="0.67"/>
<path d="M 229.1 181.4 Q 388.5 198.8 547.8 181.4" fill="none" stroke="url(#edgeGrad_22)" stroke-width="2.76" opacity="0.77" stroke-linecap="round" stroke-dasharray="30.2 7.6"/>
<path d="M 229.1 181.4 Q 388.5 200.3 547.8 181.4" fill="none" stroke="url(#edgeGrad_22)" stroke-width="2.76" opacity="0.83" stroke-linecap="round" stroke-dasharray="30.2 7.6"/>
<polygon points="547.8,181.4 541.4,185.6 540.7,178.8" fill="#24caf3" opacity="0.90"/>
<path d="M 220.9 592.6 Q 291.4 525.7 361.9 592.6" fill="none" stroke="url(#edgeGrad_23)" stroke-width="2.59" opacity="0.69" stroke-linecap="round" stroke-dasharray="30.2 7.6"/>
<path d="M 220.9 592.6 Q 291.4 527.1 361.9 592.6" fill="none" stroke="url(#edgeGrad_23)" stroke-width="2.59" opacity="0.75" stroke-linecap="round" stroke-dasharray="30.2 7.6"/>
<polygon points="361.9,592.6 354.8,590.5 359.3,585.6" fill="#1d8dea" opacity="0.82"/>
<path d="M 231.0 181.4 Q 389.4 253.5 547.8 181.4" fill="none" stroke="url(#edgeGrad_24)" stroke-width="4.02" opacity="0.49" stroke-linecap="round" stroke-dasharray="9.1 12.1"/>
<polygon points="547.8,181.4 543.3,186.9 540.7,181.1" fill="#2598b4" opacity="0.57"/>
<path d="M 338.0 554.3 Q 469.2 397.6 567.3 218.4" fill="none" stroke="url(#edgeGrad_25)" stroke-width="2.76" opacity="0.77" stroke-linecap="round" stroke-dasharray="30.2 7.6"/>
<path d="M 338.0 554.3 Q 470.4 398.4 567.3 218.4" fill="none" stroke="url(#edgeGrad_25)" stroke-width="2.76" opacity="0.83" stroke-linecap="round" stroke-dasharray="30.2 7.6"/>
<polygon points="567.3,218.4 567.1,226.0 561.1,222.7" fill="#24caf3" opacity="0.90"/>
<circle cx="181.4" cy="592.6" r="55.0" fill="url(#glowGrad_c0_0)" opacity="0.15"/>
<circle cx="181.4" cy="592.6" r="42.3" fill="url(#nodeGrad_c0_0)" stroke="#4f9ae2" stroke-width="3.0" stroke-dasharray="3.7 2.3"/>
<circle cx="175.1" cy="586.2" r="12.7" fill="#c9d9e8" opacity="0.60"/>
<circle cx="181.4" cy="592.6" r="55.0" fill="none" stroke="#5270c5" stroke-width="1.5" opacity="0.24" stroke-dasharray="4.5 4.5"/>
<polygon points="181.4,650.0 177.8,642.1 185.0,642.1" fill="#cc3333" opacity="0.28"/>
<path d="M 226.3 547.7 A 63.4 63.4 0 1 1 136.5 547.7" fill="none" stroke="#e5b219" stroke-width="2.3" opacity="0.6" stroke-linecap="round"/>
<polygon points="138.1,546.1 136.9,550.0 134.3,547.4" fill="#e5b219" opacity="0.6"/>
<circle cx="592.6" cy="592.6" r="57.6" fill="url(#glowGrad_c0_1)" opacity="0.16"/>
<circle cx="592.6" cy="592.6" r="44.3" fill="url(#nodeGrad_c0_1)" stroke="#4e87e3" stroke-width="3.2" stroke-dasharray="2.5 3.6"/>
<circle cx="585.9" cy="585.9" r="13.3" fill="#c9d5e8" opacity="0.60"/>
<polygon points="592.6,533.1 589.0,541.0 596.2,541.0" fill="#33cc33" opacity="0.20"/>
<path d="M 639.6 545.6 A 66.5 66.5 0 1 1 545.6 545.6" fill="none" stroke="#e5b219" stroke-width="2.3" opacity="0.6" stroke-linecap="round"/>
<polygon points="547.2,544.0 545.9,547.8 543.3,545.2" fill="#e5b219" opacity="0.6"/>
<circle cx="181.4" cy="592.6" r="51.4" fill="url(#glowGrad_c0_2)" opacity="0.16"/>
<circle cx="181.4" cy="592.6" r="39.5" fill="url(#nodeGrad_c0_2)" stroke="#4eb7e3" stroke-width="3.2" stroke-dasharray="3.3 2.7"/>
<circle cx="175.5" cy="586.7" r="11.9" fill="#c9dee8" opacity="0.60"/>
<path d="M 223.3 550.7 A 59.3 59.3 0 1 1 139.5 550.7" fill="none" stroke="#e5b219" stroke-width="2.3" opacity="0.6" stroke-linecap="round"/>
<polygon points="141.1,549.1 139.8,552.9 137.2,550.3" fill="#e5b219" opacity="0.6"/>
<circle cx="425.6" cy="592.6" r="63.7" fill="url(#nodeGrad_c0_3)" stroke="#4ca0e5" stroke-width="3.4" stroke-dasharray="3.3 2.7"/>
<circle cx="416.0" cy="583.0" r="14.9" fill="#c9dae8" opacity="0.47"/>
<polygon points="425.6,671.4 421.9,663.5 429.2,663.5" fill="#cc3333" opacity="0.19"/>
<path d="M 493.1 525.1 A 95.5 95.5 0 1 1 358.1 525.1" fill="none" stroke="#e5b219" stroke-width="2.3" opacity="0.6" stroke-linecap="round"/>
<polygon points="359.7,523.5 358.4,527.3 355.8,524.8" fill="#e5b219" opacity="0.6"/>
<circle cx="373.4" cy="422.1" r="58.9" fill="url(#glowGrad_c0_4)" opacity="0.15"/>
<circle cx="373.4" cy="422.1" r="45.3" fill="url(#nodeGrad_c0_4)" stroke="#4fa3e2" stroke-width="3.1"/>
<circle cx="366.6" cy="415.4" r="13.6" fill="#c9dbe8" opacity="0.60"/>
<polygon points="373.4,482.6 369.7,474.7 377.0,474.7" fill="#cc3333" opacity="0.22"/>
<path d="M 421.4 374.1 A 67.9 67.9 0 1 1 325.3 374.1" fill="none" stroke="#e5b219" stroke-width="2.3" opacity="0.6" stroke-linecap="round"/>
<polygon points="326.9,372.5 325.6,376.3 323.1,373.8" fill="#e5b219" opacity="0.6"/>
<circle cx="592.6" cy="592.6" r="54.6" fill="url(#glowGrad_c0_5)" opacity="0.15"/>
<circle cx="592.6" cy="592.6" r="42.0" fill="url(#nodeGrad_c0_5)" stroke="#4f8de2" stroke-width="3.0" stroke-dasharray="2.3 3.8"/>
<circle cx="586.3" cy="586.3" r="12.6" fill="#c9d6e8" opacity="0.60"/>
<circle cx="592.6" cy="592.6" r="54.6" fill="none" stroke="#5266c5" stroke-width="1.5" opacity="0.24" stroke-dasharray="4.5 4.5"/>
<polygon points="592.6,649.7 589.0,641.8 596.2,641.8" fill="#cc3333" opacity="0.32"/>
<path d="M 637.1 548.1 A 63.0 63.0 0 1 1 548.1 548.1" fill="none" stroke="#e5b219" stroke-width="2.3" opacity="0.6" stroke-linecap="round"/>
<polygon points="549.7,546.5 548.4,550.3 545.8,547.7" fill="#e5b219" opacity="0.6"/>
<circle cx="313.5" cy="590.1" r="56.4" fill="url(#glowGrad_c1_0)" opacity="0.18"/>
<circle cx="313.5" cy="590.1" r="43.4" fill="url(#nodeGrad_c1_0)" stroke="#4cabe5" stroke-width="3.3"/>
<circle cx="307.0" cy="583.5" r="13.0" fill="#c9dce8" opacity="0.60"/>
<path d="M 359.5 544.1 A 65.0 65.0 0 1 1 267.6 544.1" fill="none" stroke="#e5b219" stroke-width="2.3" opacity="0.6" stroke-linecap="round"/>
<polygon points="269.2,542.5 267.9,546.3 265.3,543.7" fill="#e5b219" opacity="0.6"/>
<circle cx="592.6" cy="181.4" r="58.2" fill="url(#glowGrad_c1_1)" opacity="0.16"/>
<circle cx="592.6" cy="181.4" r="44.8" fill="url(#nodeGrad_c1_1)" stroke="#4ec5e3" stroke-width="3.1" stroke-dasharray="2.7 3.4"/>
<circle cx="585.9" cy="174.7" r="13.4" fill="#c9e2e8" opacity="0.60"/>
<polygon points="592.6,241.3 589.0,233.4 596.2,233.4" fill="#cc3333" opacity="0.27"/>
<path d="M 640.1 133.9 A 67.2 67.2 0 1 1 545.1 133.9" fill="none" stroke="#e5b219" stroke-width="2.3" opacity="0.6" stroke-linecap="round"/>
<polygon points="546.7,132.3 545.4,136.2 542.9,133.6" fill="#e5b219" opacity="0.6"/>
<circle cx="187.6" cy="181.4" r="56.5" fill="url(#glowGrad_c1_2)" opacity="0.15"/>
<circle cx="187.6" cy="181.4" r="43.4" fill="url(#nodeGrad_c1_2)" stroke="#4f9be2" stroke-width="3.0" stroke-dasharray="3.9 2.2"/>
<circle cx="181.1" cy="174.9" r="13.0" fill="#c9d9e8" opacity="0.60"/>
<polygon points="187.6,240.0 183.9,232.1 191.2,232.1" fill="#cc3333" opacity="0.17"/>
<path d="M 233.6 135.3 A 65.2 65.2 0 1 1 141.5 135.3" fill="none" stroke="#e5b219" stroke-width="2.3" opacity="0.6" stroke-linecap="round"/>
<polygon points="143.1,133.7 141.8,137.6 139.3,135.0" fill="#e5b219" opacity="0.6"/>
<circle cx="592.6" cy="181.4" r="58.4" fill="url(#glowGrad_c1_3)" opacity="0.16"/>
<circle cx="592.6" cy="181.4" r="44.9" fill="url(#nodeGrad_c1_3)" stroke="#42c5ef" stroke-width="3.1" stroke-dasharray="3.9 2.2"/>
<circle cx="585.9" cy="174.7" r="13.5" fill="#c9e0e8" opacity="0.60"/>
<circle cx="592.6" cy="181.4" r="62.9" fill="none" stroke="#ed9c2a" stroke-width="2.3" opacity="0.57"/>
<path d="M 640.2 133.8 A 67.4 67.4 0 1 1 544.9 133.8" fill="none" stroke="#e5b219" stroke-width="2.3" opacity="0.6" stroke-linecap="round"/>
<polygon points="546.5,132.2 545.3,136.0 542.7,133.4" fill="#e5b219" opacity="0.6"/>
<circle cx="181.4" cy="181.4" r="62.0" fill="url(#glowGrad_c1_4)" opacity="0.17"/>
<circle cx="181.4" cy="181.4" r="47.7" fill="url(#nodeGrad_c1_4)" stroke="#4db6e4" stroke-width="3.3"/>
<circle cx="174.2" cy="174.2" r="14.3" fill="#c9dee8" opacity="0.60"/>
<circle cx="181.4" cy="181.4" r="62.0" fill="none" stroke="#5286c5" stroke-width="1.5" opacity="0.11" stroke-dasharray="4.5 4.5"/>
<path d="M 232.0 130.8 A 71.6 71.6 0 1 1 130.8 130.8" fill="none" stroke="#e5b219" stroke-width="2.3" opacity="0.6" stroke-linecap="round"/>
<polygon points="132.4,129.2 131.1,133.0 128.6,130.5" fill="#e5b219" opacity="0.6"/>
  <!-- Vignette overlay -->
  <rect width="100%" height="100%" fill="url(#vignette)"/>
</svg>