<?xml version="1.0" encoding="UTF-8"?>
<svg xmlns="http://www.w3.org/2000/svg" viewBox="0 0 774 774" width="774" height="774">
  <rect width="100%" height="100%" fill="#181825"/>
  <path d="M 538.1 196.8 Q 532.5 246.8 577.3 269.9" fill="none" stroke="#fab387" stroke-width="2.99" stroke-linecap="round"/>
<path d="M 480.1 171.1 Q 413.2 116.0 380.7 196.4" fill="none" stroke="#fab387" stroke-width="3.11" stroke-linecap="round"/>
<path d="M 214.3 177.7 Q 345.0 140.9 478.9 163.4" fill="none" stroke="#fab387" stroke-width="2.99" stroke-linecap="round"/>
<path d="M 202.5 203.3 Q 413.9 354.3 505.6 597.3" fill="none" stroke="#fab387" stroke-width="2.75" stroke-linecap="round"/>
<path d="M 213.1 188.0 Q 404.9 177.9 560.1 290.9" fill="none" stroke="#fab387" stroke-width="2.87" stroke-linecap="round"/>
<path d="M 472.5 232.4 Q 480.5 299.2 444.1 242.6" fill="none" stroke="#fab387" stroke-width="2.51" stroke-linecap="round"/>
<path d="M 520.9 201.5 Q 563.9 385.2 537.4 572.0" fill="none" stroke="#fab387" stroke-width="2.99" stroke-linecap="round"/>
<path d="M 437.4 231.1 Q 498.1 250.4 488.5 187.4" fill="none" stroke="#eba0ac" stroke-width="2.87" stroke-linecap="round"/>
<path d="M 422.0 289.7 Q 418.6 452.2 525.7 574.3" fill="none" stroke="#eba0ac" stroke-width="2.75" stroke-linecap="round"/>
<path d="M 410.6 372.3 Q 373.2 242.2 500.7 197.1" fill="none" stroke="#eba0ac" stroke-width="5.96" stroke-linecap="round"/>
<path d="M 390.0 370.2 Q 311.7 323.3 354.1 242.5" fill="none" stroke="#eba0ac" stroke-width="5.96" stroke-linecap="round"/>
<path d="M 377.8 377.2 Q 253.6 326.2 205.2 201.0" fill="none" stroke="#eba0ac" stroke-width="5.72" stroke-linecap="round"/>
<path d="M 412.1 373.1 Q 416.0 291.3 485.6 248.2" fill="none" stroke="#eba0ac" stroke-width="5.72" stroke-linecap="round"/>
<path d="M 480.1 171.1 Q 443.8 236.3 380.7 196.4" fill="none" stroke="#fab387" stroke-width="3.11" stroke-linecap="round"/>
<circle cx="596.2" cy="162.9" r="25.3" fill="none" stroke="#eba0ac" stroke-width="5.1"/>
<circle cx="596.2" cy="162.9" r="18.9" fill="none" stroke="#eba0ac" stroke-width="5.1"/>
<circle cx="596.2" cy="162.9" r="12.6" fill="none" stroke="#eba0ac" stroke-width="5.1"/>
<circle cx="596.2" cy="162.9" r="6.3" fill="none" stroke="#eba0ac" stroke-width="5.1"/>
<circle cx="539.2" cy="611.1" r="39.2" fill="#fab387"/>
<circle cx="330.8" cy="183.6" r="22.7" fill="none" stroke="#eba0ac" stroke-width="9.1"/>
<circle cx="330.8" cy="183.6" r="11.4" fill="none" stroke="#eba0ac" stroke-width="9.1"/>
<circle cx="593.8" cy="300.9" r="35.1" fill="#45475a"/>
<circle cx="584.3" cy="251.8" r="28.4" fill="#45475a"/>
<circle cx="397.6" cy="397.6" r="25.3" fill="none" stroke="#eba0ac" stroke-width="5.1"/>
<circle cx="397.6" cy="397.6" r="18.9" fill="none" stroke="#eba0ac" stroke-width="5.1"/>
<circle cx="397.6" cy="397.6" r="12.6" fill="none" stroke="#eba0ac" stroke-width="5.1"/>
<circle cx="397.6" cy="397.6" r="6.3" fill="none" stroke="#eba0ac" stroke-width="5.1"/>
<circle cx="343.8" cy="205.8" r="33.9" fill="none" stroke="#585b70" stroke-width="6.8"/>
<circle cx="343.8" cy="205.8" r="25.4" fill="none" stroke="#585b70" stroke-width="6.8"/>
<circle cx="343.8" cy="205.8" r="16.9" fill="none" stroke="#585b70" stroke-width="6.8"/>
<circle cx="343.8" cy="205.8" r="8.5" fill="none" stroke="#585b70" stroke-width="6.8"/>
<circle cx="519.2" cy="161.2" r="32.2" fill="none" stroke="#fab387" stroke-width="12.9"/>
<circle cx="519.2" cy="161.2" r="16.1" fill="none" stroke="#fab387" stroke-width="12.9"/>
<circle cx="473.9" cy="320.8" r="28.4" fill="#45475a"/>
<circle cx="500.9" cy="222.2" r="30.2" fill="#fab387"/>
<circle cx="409.4" cy="255.0" r="36.9" fill="#eba0ac"/>
<circle cx="548.7" cy="549.0" r="22.7" fill="none" stroke="#585b70" stroke-width="9.1"/>
<circle cx="548.7" cy="549.0" r="11.4" fill="none" stroke="#585b70" stroke-width="9.1"/>
<circle cx="524.6" cy="622.0" r="31.1" fill="#fab387"/>
<circle cx="173.5" cy="354.0" r="22.7" fill="none" stroke="#f5c2e7" stroke-width="9.1"/>
<circle cx="173.5" cy="354.0" r="11.4" fill="none" stroke="#f5c2e7" stroke-width="9.1"/>
<circle cx="184.1" cy="179.4" r="26.9" fill="none" stroke="#fab387" stroke-width="5.4"/>
<circle cx="184.1" cy="179.4" r="20.2" fill="none" stroke="#fab387" stroke-width="5.4"/>
<circle cx="184.1" cy="179.4" r="13.4" fill="none" stroke="#fab387" stroke-width="5.4"/>
<circle cx="184.1" cy="179.4" r="6.7" fill="none" stroke="#fab387" stroke-width="5.4"/>
</svg>