<?xml version="1.0" encoding="UTF-8"?>
<svg xmlns="http://www.w3.org/2000/svg" viewBox="0 0 774 774" width="774" height="774">
  <rect width="100%" height="100%" fill="#74c7ec"/>
  <path d="M 600.8 387.8 Q 479.8 258.5 309.1 211.1" fill="none" stroke="#585b70" stroke-width="2.63" stroke-linecap="round"/>
<path d="M 267.0 412.2 Q 340.0 492.4 253.3 557.5" fill="none" stroke="#585b70" stroke-width="5.89" stroke-linecap="round"/>
<path d="M 408.8 200.4 Q 364.1 391.8 261.7 559.6" fill="none" stroke="#585b70" stroke-width="5.65" stroke-linecap="round"/>
<path d="M 288.6 466.3 Q 244.3 540.9 177.7 485.4" fill="none" stroke="#f5e0dc" stroke-width="5.60" stroke-linecap="round"/>
<path d="M 301.2 483.2 Q 369.5 564.4 263.5 560.4" fill="none" stroke="#f5e0dc" stroke-width="5.72" stroke-linecap="round"/>
<path d="M 289.1 401.0 Q 395.3 513.7 545.0 553.4" fill="none" stroke="#585b70" stroke-width="3.24" stroke-linecap="round"/>
<path d="M 292.3 390.0 Q 443.1 435.4 596.8 401.3" fill="none" stroke="#585b70" stroke-width="3.24" stroke-linecap="round"/>
<path d="M 282.3 408.2 Q 267.1 550.6 405.7 587.0" fill="none" stroke="#585b70" stroke-width="2.99" stroke-linecap="round"/>
<path d="M 282.4 370.1 Q 376.8 307.4 403.1 197.2" fill="none" stroke="#585b70" stroke-width="3.24" stroke-linecap="round"/>
<path d="M 418.5 514.5 Q 448.9 624.1 542.3 559.2" fill="none" stroke="#f5e0dc" stroke-width="3.24" stroke-linecap="round"/>
<path d="M 409.3 487.1 Q 537.1 414.6 551.1 268.4" fill="none" stroke="#f5e0dc" stroke-width="2.99" stroke-linecap="round"/>
<path d="M 417.8 497.0 Q 531.5 505.8 599.3 414.1" fill="none" stroke="#f5e0dc" stroke-width="3.24" stroke-linecap="round"/>
<path d="M 388.7 484.8 Q 402.8 331.8 292.7 224.6" fill="none" stroke="#f5e0dc" stroke-width="3.11" stroke-linecap="round"/>
<path d="M 398.3 483.5 Q 453.5 346.2 418.0 202.5" fill="none" stroke="#f5e0dc" stroke-width="3.24" stroke-linecap="round"/>
<path d="M 439.9 195.1 Q 507.9 301.7 606.2 381.4" fill="none" stroke="#585b70" stroke-width="5.13" stroke-linecap="round"/>
<path d="M 400.8 195.5 Q 227.6 283.5 168.0 468.5" fill="none" stroke="#585b70" stroke-width="5.10" stroke-linecap="round"/>
<path d="M 241.4 558.8 Q 148.4 474.9 174.1 352.4" fill="none" stroke="#f5e0dc" stroke-width="5.19" stroke-linecap="round"/>
<path d="M 494.9 374.6 Q 509.7 270.3 430.4 200.7" fill="none" stroke="#11111b" stroke-width="2.99" stroke-linecap="round"/>
<path d="M 177.6 495.6 Q 368.7 479.7 540.9 564.3" fill="none" stroke="#f5e0dc" stroke-width="2.75" stroke-linecap="round"/>
<circle cx="502.9" cy="396.4" r="23.2" fill="#11111b"/>
<circle cx="456.5" cy="467.4" r="23.2" fill="#eba0ac"/>
<circle cx="396.7" cy="506.6" r="23.2" fill="#f5e0dc"/>
<circle cx="311.4" cy="462.4" r="19.9" fill="none" stroke="#f5e0dc" stroke-width="5.3"/>
<circle cx="311.4" cy="462.4" r="13.3" fill="none" stroke="#f5e0dc" stroke-width="5.3"/>
<circle cx="311.4" cy="462.4" r="6.6" fill="none" stroke="#f5e0dc" stroke-width="5.3"/>
<circle cx="269.1" cy="389.1" r="20.6" fill="none" stroke="#585b70" stroke-width="4.1"/>
<circle cx="269.1" cy="389.1" r="15.5" fill="none" stroke="#585b70" stroke-width="4.1"/>
<circle cx="269.1" cy="389.1" r="10.3" fill="none" stroke="#585b70" stroke-width="4.1"/>
<circle cx="269.1" cy="389.1" r="5.2" fill="none" stroke="#585b70" stroke-width="4.1"/>
<circle cx="324.1" cy="317.7" r="19.9" fill="none" stroke="#f5e0dc" stroke-width="5.3"/>
<circle cx="324.1" cy="317.7" r="13.3" fill="none" stroke="#f5e0dc" stroke-width="5.3"/>
<circle cx="324.1" cy="317.7" r="6.6" fill="none" stroke="#f5e0dc" stroke-width="5.3"/>
<circle cx="386.8" cy="278.0" r="23.2" fill="#eba0ac"/>
<circle cx="466.4" cy="323.1" r="23.2" fill="#11111b"/>
<circle cx="624.9" cy="402.4" r="28.1" fill="#585b70"/>
<circle cx="573.8" cy="570.6" r="33.5" fill="#11111b"/>
<circle cx="419.3" cy="606.8" r="19.2" fill="none" stroke="#11111b" stroke-width="7.7"/>
<circle cx="419.3" cy="606.8" r="9.6" fill="none" stroke="#11111b" stroke-width="7.7"/>
<circle cx="250.5" cy="586.9" r="26.3" fill="none" stroke="#f5e0dc" stroke-width="5.3"/>
<circle cx="250.5" cy="586.9" r="19.7" fill="none" stroke="#f5e0dc" stroke-width="5.3"/>
<circle cx="250.5" cy="586.9" r="13.1" fill="none" stroke="#f5e0dc" stroke-width="5.3"/>
<circle cx="250.5" cy="586.9" r="6.6" fill="none" stroke="#f5e0dc" stroke-width="5.3"/>
<circle cx="149.5" cy="490.3" r="22.9" fill="none" stroke="#f5e0dc" stroke-width="9.1"/>
<circle cx="149.5" cy="490.3" r="11.4" fill="none" stroke="#f5e0dc" stroke-width="9.1"/>
<circle cx="164.1" cy="321.4" r="32.5" fill="#f5e0dc"/>
<circle cx="281.5" cy="194.3" r="28.7" fill="none" stroke="#11111b" stroke-width="5.7"/>
<circle cx="281.5" cy="194.3" r="21.5" fill="none" stroke="#11111b" stroke-width="5.7"/>
<circle cx="281.5" cy="194.3" r="14.4" fill="none" stroke="#11111b" stroke-width="5.7"/>
<circle cx="281.5" cy="194.3" r="7.2" fill="none" stroke="#11111b" stroke-width="5.7"/>
<circle cx="420.1" cy="172.9" r="25.5" fill="none" stroke="#585b70" stroke-width="6.8"/>
<circle cx="420.1" cy="172.9" r="17.0" fill="none" stroke="#585b70" stroke-width="6.8"/>
<circle cx="420.1" cy="172.9" r="8.5" fill="none" stroke="#585b70" stroke-width="6.8"/>
<circle cx="564.2" cy="248.2" r="21.4" fill="none" stroke="#11111b" stroke-width="4.3"/>
<circle cx="564.2" cy="248.2" r="16.0" fill="none" stroke="#11111b" stroke-width="4.3"/>
<circle cx="564.2" cy="248.2" r="10.7" fill="none" stroke="#11111b" stroke-width="4.3"/>
<circle cx="564.2" cy="248.2" r="5.3" fill="none" stroke="#11111b" stroke-width="4.3"/>
</svg>