<?xml version="1.0" encoding="UTF-8"?>
<svg xmlns="http://www.w3.org/2000/svg" viewBox="0 0 774 774" width="774" height="774">
  <defs>
  <filter id="noiseFilter" x="0%" y="0%" width="100%" height="100%">
    <feTurbulence type="fractalNoise" baseFrequency="0.3307" numOctaves="3" result="noise"/>
    <feColorMatrix type="matrix" values="0 0 0 0 0.03  0 0 0 0 0.05  0 0 0 0 0.08  0 0 0 0.15 0"/>
  </filter>
  <radialGradient id="vignette" cx="50%" cy="50%" r="70%" fx="50%" fy="50%">
    <stop offset="0%" stop-color="#000000" stop-opacity="0"/>
    <stop offset="60%" stop-color="#000000" stop-opacity="0"/>
    <stop offset="100%" stop-color="#000000" stop-opacity="0.7"/>
  </radialGradient>
  <filter id="softGlow" x="-100%" y="-100%" width="300%" height="300%">
    <feGaussianBlur in="SourceGraphic" stdDeviation="12.1" result="blur"/>
    <feMerge>
      <feMergeNode in="blur"/>
      <feMergeNode in="blur"/>
      <feMergeNode in="SourceGraphic"/>
    </feMerge>
  </filter>
  <filter id="intenseGlow" x="-150%" y="-150%" width="400%" height="400%">
    <feGaussianBlur in="SourceGraphic" stdDeviation="18.1" result="blur"/>
    <feMerge>
      <feMergeNode in="blur"/>
      <feMergeNode in="blur"/>
      <feMergeNode in="blur"/>
      <feMergeNode in="SourceGraphic"/>
    </feMerge>
  </filter>
  <filter id="edgeGlow" x="-50%" y="-50%" width="200%" height="200%">
    <feGaussianBlur in="SourceGraphic" stdDeviation="6.0" result="blur"/>
    <feMerge>
      <feMergeNode in="blur"/>
      <feMergeNode in="SourceGraphic"/>
    </feMerge>
  </filter>
  <radialGradient id="nodeGrad_c0_0" cx="35%" cy="35%" r="65%" fx="35%" fy="35%">
    <stop offset="0%" stop-color="#75e5ef"/>
    <stop offset="100%" stop-color="#0bc8da"/>
  </radialGradient>
  <radialGradient id="glowGrad_c0_0">
    <stop offset="0%" stop-color="#3f94bf" stop-opacity="0.25"/>
    <stop offset="70%" stop-color="#3f94bf" stop-opacity="0.08"/>
    <stop offset="100%" stop-color="#3f94bf" stop-opacity="0"/>
  </radialGradient>
  <radialGradient id="nodeGrad_c0_1" cx="35%" cy="35%" r="65%" fx="35%" fy="35%">
    <stop offset="0%" stop-color="#75c0ef"/>
    <stop offset="100%" stop-color="#0b8ada"/>
  </radialGradient>
  <radialGradient id="glowGrad_c0_1">
    <stop offset="0%" stop-color="#3f6abf" stop-opacity="0.25"/>
    <stop offset="70%" stop-color="#3f6abf" stop-opacity="0.08"/>
    <stop offset="100%" stop-color="#3f6abf" stop-opacity="0"/>
  </radialGradient>
  <radialGradient id="nodeGrad_c0_2" cx="35%" cy="35%" r="65%" fx="35%" fy="35%">
    <stop offset="0%" stop-color="#75ebef"/>
    <stop offset="100%" stop-color="#0bd2da"/>
  </radialGradient>
  <radialGradient id="glowGrad_c0_2">
    <stop offset="0%" stop-color="#3f9bbf" stop-opacity="0.25"/>
    <stop offset="70%" stop-color="#3f9bbf" stop-opacity="0.08"/>
    <stop offset="100%" stop-color="#3f9bbf" stop-opacity="0"/>
  </radialGradient>
  <radialGradient id="nodeGrad_c0_3" cx="35%" cy="35%" r="65%" fx="35%" fy="35%">
    <stop offset="0%" stop-color="#5ab8e1"/>
    <stop offset="100%" stop-color="#1485b5"/>
  </radialGradient>
  <radialGradient id="glowGrad_c0_3">
    <stop offset="0%" stop-color="#3f8abf" stop-opacity="0.25"/>
    <stop offset="70%" stop-color="#3f8abf" stop-opacity="0.08"/>
    <stop offset="100%" stop-color="#3f8abf" stop-opacity="0"/>
  </radialGradient>
  <radialGradient id="nodeGrad_c0_4" cx="35%" cy="35%" r="65%" fx="35%" fy="35%">
    <stop offset="0%" stop-color="#52b3db"/>
    <stop offset="100%" stop-color="#177ea8"/>
  </radialGradient>
  <radialGradient id="glowGrad_c0_4">
    <stop offset="0%" stop-color="#3f91bf" stop-opacity="0.25"/>
    <stop offset="70%" stop-color="#3f91bf" stop-opacity="0.08"/>
    <stop offset="100%" stop-color="#3f91bf" stop-opacity="0"/>
  </radialGradient>
  <radialGradient id="nodeGrad_c0_5" cx="35%" cy="35%" r="65%" fx="35%" fy="35%">
    <stop offset="0%" stop-color="#75c1ef"/>
    <stop offset="100%" stop-color="#0b8cda"/>
  </radialGradient>
  <radialGradient id="glowGrad_c0_5">
    <stop offset="0%" stop-color="#3f6cbf" stop-opacity="0.25"/>
    <stop offset="70%" stop-color="#3f6cbf" stop-opacity="0.08"/>
    <stop offset="100%" stop-color="#3f6cbf" stop-opacity="0"/>
  </radialGradient>
  <radialGradient id="nodeGrad_c0_6" cx="35%" cy="35%" r="65%" fx="35%" fy="35%">
    <stop offset="0%" stop-color="#75d9ef"/>
    <stop offset="100%" stop-color="#0bb4da"/>
  </radialGradient>
  <radialGradient id="glowGrad_c0_6">
    <stop offset="0%" stop-color="#3f87bf" stop-opacity="0.25"/>
    <stop offset="70%" stop-color="#3f87bf" stop-opacity="0.08"/>
    <stop offset="100%" stop-color="#3f87bf" stop-opacity="0"/>
  </radialGradient>
  <radialGradient id="nodeGrad_c1_0" cx="35%" cy="35%" r="65%" fx="35%" fy="35%">
    <stop offset="0%" stop-color="#4ca7d6"/>
    <stop offset="100%" stop-color="#1972a0"/>
  </radialGradient>
  <radialGradient id="glowGrad_c1_0">
    <stop offset="0%" stop-color="#3f8fbf" stop-opacity="0.25"/>
    <stop offset="70%" stop-color="#3f8fbf" stop-opacity="0.08"/>
    <stop offset="100%" stop-color="#3f8fbf" stop-opacity="0"/>
  </radialGradient>
  <radialGradient id="nodeGrad_c1_1" cx="35%" cy="35%" r="65%" fx="35%" fy="35%">
    <stop offset="0%" stop-color="#75e5ef"/>
    <stop offset="100%" stop-color="#0bc9da"/>
  </radialGradient>
  <radialGradient id="glowGrad_c1_1">
    <stop offset="0%" stop-color="#3f95bf" stop-opacity="0.25"/>
    <stop offset="70%" stop-color="#3f95bf" stop-opacity="0.08"/>
    <stop offset="100%" stop-color="#3f95bf" stop-opacity="0"/>
  </radialGradient>
  <radialGradient id="nodeGrad_c1_2" cx="35%" cy="35%" r="65%" fx="35%" fy="35%">
    <stop offset="0%" stop-color="#75d4ef"/>
    <stop offset="100%" stop-color="#0bacda"/>
  </radialGradient>
  <radialGradient id="glowGrad_c1_2">
    <stop offset="0%" stop-color="#3f82bf" stop-opacity="0.25"/>
    <stop offset="70%" stop-color="#3f82bf" stop-opacity="0.08"/>
    <stop offset="100%" stop-color="#3f82bf" stop-opacity="0"/>
  </radialGradient>
  <radialGradient id="nodeGrad_c1_3" cx="35%" cy="35%" r="65%" fx="35%" fy="35%">
    <stop offset="0%" stop-color="#75c6ef"/>
    <stop offset="100%" stop-color="#0b94da"/>
  </radialGradient>
  <radialGradient id="glowGrad_c1_3">
    <stop offset="0%" stop-color="#3f71bf" stop-opacity="0.25"/>
    <stop offset="70%" stop-color="#3f71bf" stop-opacity="0.08"/>
    <stop offset="100%" stop-color="#3f71bf" stop-opacity="0"/>
  </radialGradient>
  <radialGradient id="nodeGrad_c1_4" cx="35%" cy="35%" r="65%" fx="35%" fy="35%">
    <stop offset="0%" stop-color="#75efee"/>
    <stop offset="100%" stop-color="#0bdad7"/>
  </radialGradient>
  <radialGradient id="glowGrad_c1_4">
    <stop offset="0%" stop-color="#3fa2bf" stop-opacity="0.25"/>
    <stop offset="70%" stop-color="#3fa2bf" stop-opacity="0.08"/>
    <stop offset="100%" stop-color="#3fa2bf" stop-opacity="0"/>
  </radialGradient>
  <linearGradient id="edgeGrad_0" x1="23.4%" y1="70.6%" x2="23.4%" y2="63.6%">
    <stop offset="0%" stop-color="#246af3"/>
    <stop offset="100%" stop-color="#246df3"/>
  </linearGradient>
  <linearGradient id="edgeGrad_1" x1="29.4%" y1="76.6%" x2="34.8%" y2="76.6%">
    <stop offset="0%" stop-color="#246af3"/>
    <stop offset="100%" stop-color="#24aef3"/>
  </linearGradient>
  <linearGradient id="edgeGrad_3" x1="50.6%" y1="76.6%" x2="64.4%" y2="76.6%">
    <stop offset="0%" stop-color="#1f93cd"/>
    <stop offset="100%" stop-color="#1f8fcd"/>
  </linearGradient>
  <linearGradient id="edgeGrad_4" x1="57.0%" y1="23.4%" x2="69.7%" y2="23.4%">
    <stop offset="0%" stop-color="#24c4f3"/>
    <stop offset="100%" stop-color="#2475f3"/>
  </linearGradient>
  <linearGradient id="edgeGrad_5" x1="43.9%" y1="68.7%" x2="44.6%" y2="64.6%">
    <stop offset="0%" stop-color="#24aef3"/>
    <stop offset="100%" stop-color="#2498f3"/>
  </linearGradient>
  <linearGradient id="edgeGrad_6" x1="34.8%" y1="76.6%" x2="29.4%" y2="76.6%">
    <stop offset="0%" stop-color="#238abd"/>
    <stop offset="100%" stop-color="#2357bd"/>
  </linearGradient>
  <linearGradient id="edgeGrad_7" x1="76.6%" y1="30.3%" x2="76.6%" y2="45.9%">
    <stop offset="0%" stop-color="#2475f3"/>
    <stop offset="100%" stop-color="#24a5f3"/>
  </linearGradient>
  <linearGradient id="edgeGrad_8" x1="25.6%" y1="35.3%" x2="39.6%" y2="69.2%">
    <stop offset="0%" stop-color="#249df3"/>
    <stop offset="100%" stop-color="#24aef3"/>
  </linearGradient>
  <linearGradient id="edgeGrad_9" x1="69.8%" y1="23.4%" x2="57.0%" y2="23.4%">
    <stop offset="0%" stop-color="#24aff3"/>
    <stop offset="100%" stop-color="#24c4f3"/>
  </linearGradient>
  <linearGradient id="edgeGrad_10" x1="25.7%" y1="35.6%" x2="39.6%" y2="69.2%">
    <stop offset="0%" stop-color="#24b9f3"/>
    <stop offset="100%" stop-color="#24aef3"/>
  </linearGradient>
  <linearGradient id="edgeGrad_11" x1="39.6%" y1="57.9%" x2="31.3%" y2="56.7%">
    <stop offset="0%" stop-color="#2477b9"/>
    <stop offset="100%" stop-color="#2458b9"/>
  </linearGradient>
  <linearGradient id="edgeGrad_12" x1="31.3%" y1="56.7%" x2="39.6%" y2="57.9%">
    <stop offset="0%" stop-color="#225ac0"/>
    <stop offset="100%" stop-color="#227bc0"/>
  </linearGradient>
  <linearGradient id="edgeGrad_13" x1="76.6%" y1="30.2%" x2="76.6%" y2="45.9%">
    <stop offset="0%" stop-color="#1aa3e7"/>
    <stop offset="100%" stop-color="#1a99e7"/>
  </linearGradient>
  <linearGradient id="edgeGrad_14" x1="76.6%" y1="45.9%" x2="76.6%" y2="30.3%">
    <stop offset="0%" stop-color="#2481ba"/>
    <stop offset="100%" stop-color="#245eba"/>
  </linearGradient>
  <linearGradient id="edgeGrad_16" x1="64.4%" y1="76.6%" x2="50.6%" y2="76.6%">
    <stop offset="0%" stop-color="#24a9f3"/>
    <stop offset="100%" stop-color="#24aef3"/>
  </linearGradient>
  <linearGradient id="edgeGrad_17" x1="39.6%" y1="69.2%" x2="25.7%" y2="35.6%">
    <stop offset="0%" stop-color="#24aef3"/>
    <stop offset="100%" stop-color="#24b9f3"/>
  </linearGradient>
  <linearGradient id="edgeGrad_18" x1="30.7%" y1="58.9%" x2="64.8%" y2="74.3%">
    <stop offset="0%" stop-color="#2458b8"/>
    <stop offset="100%" stop-color="#2483b8"/>
  </linearGradient>
  <linearGradient id="edgeGrad_20" x1="64.8%" y1="74.3%" x2="30.7%" y2="58.9%">
    <stop offset="0%" stop-color="#24a9f3"/>
    <stop offset="100%" stop-color="#246cf3"/>
  </linearGradient>
  <linearGradient id="edgeGrad_21" x1="39.6%" y1="69.2%" x2="25.6%" y2="35.3%">
    <stop offset="0%" stop-color="#24aef3"/>
    <stop offset="100%" stop-color="#249df3"/>
  </linearGradient>
  <linearGradient id="edgeGrad_22" x1="23.4%" y1="47.7%" x2="23.4%" y2="35.7%">
    <stop offset="0%" stop-color="#246df3"/>
    <stop offset="100%" stop-color="#249df3"/>
  </linearGradient>
  <linearGradient id="edgeGrad_23" x1="76.6%" y1="45.9%" x2="76.6%" y2="30.2%">
    <stop offset="0%" stop-color="#24a5f3"/>
    <stop offset="100%" stop-color="#24aff3"/>
  </linearGradient>
  <linearGradient id="edgeGrad_24" x1="69.7%" y1="23.4%" x2="57.0%" y2="23.4%">
    <stop offset="0%" stop-color="#2475f3"/>
    <stop offset="100%" stop-color="#24c4f3"/>
  </linearGradient>
  <linearGradient id="edgeGrad_25" x1="23.4%" y1="36.1%" x2="23.4%" y2="47.7%">
    <stop offset="0%" stop-color="#2392bd"/>
    <stop offset="100%" stop-color="#2359bd"/>
  </linearGradient>
  <linearGradient id="edgeGrad_26" x1="44.6%" y1="64.6%" x2="43.9%" y2="68.7%">
    <stop offset="0%" stop-color="#2498f3"/>
    <stop offset="100%" stop-color="#24aef3"/>
  </linearGradient>
  <linearGradient id="edgeGrad_27" x1="57.0%" y1="23.4%" x2="69.8%" y2="23.4%">
    <stop offset="0%" stop-color="#24c4f3"/>
    <stop offset="100%" stop-color="#24aff3"/>
  </linearGradient>
  <linearGradient id="edgeGrad_28" x1="23.4%" y1="35.7%" x2="23.4%" y2="47.7%">
    <stop offset="0%" stop-color="#249df3"/>
    <stop offset="100%" stop-color="#246df3"/>
  </linearGradient>
  <linearGradient id="edgeGrad_30" x1="23.4%" y1="47.7%" x2="23.4%" y2="36.1%">
    <stop offset="0%" stop-color="#1a60e3"/>
    <stop offset="100%" stop-color="#1aabe3"/>
  </linearGradient>
  <linearGradient id="edgeGrad_31" x1="40.9%" y1="62.4%" x2="28.1%" y2="72.8%">
    <stop offset="0%" stop-color="#2498f3"/>
    <stop offset="100%" stop-color="#246af3"/>
  </linearGradient>
  <linearGradient id="edgeGrad_32" x1="23.4%" y1="63.6%" x2="23.4%" y2="70.6%">
    <stop offset="0%" stop-color="#1d64ea"/>
    <stop offset="100%" stop-color="#1d62ea"/>
  </linearGradient>
</defs>
  <!-- Background -->
  <rect width="100%" height="100%" fill="#000000"/>
  <!-- Noise texture overlay -->
  <rect width="100%" height="100%" filter="url(#noiseFilter)" opacity="1"/>
  <!-- Graph content -->
  <path d="M 181.4 546.2 Q 163.5 519.2 181.4 492.3" fill="none" stroke="url(#edgeGrad_0)" stroke-width="2.75" opacity="0.77" stroke-linecap="round" stroke-dasharray="30.2 7.6"/>
<path d="M 181.4 546.2 Q 165.0 519.2 181.4 492.3" fill="none" stroke="url(#edgeGrad_0)" stroke-width="2.75" opacity="0.83" stroke-linecap="round" stroke-dasharray="30.2 7.6"/>
<polygon points="181.4,492.3 180.6,499.9 174.9,496.2" fill="#246df3" opacity="0.90"/>
<path d="M 227.8 592.6 Q 248.4 519.0 269.0 592.6" fill="none" stroke="url(#edgeGrad_1)" stroke-width="2.78" opacity="0.77" stroke-linecap="round" stroke-dasharray="30.2 7.6"/>
<path d="M 227.8 592.6 Q 248.4 520.5 269.0 592.6" fill="none" stroke="url(#edgeGrad_1)" stroke-width="2.78" opacity="0.83" stroke-linecap="round" stroke-dasharray="30.2 7.6"/>
<polygon points="269.0,592.6 263.9,587.0 270.4,585.1" fill="#24aef3" opacity="0.90"/>
<path d="M 391.7 592.6 Q 444.9 522.0 498.1 592.6" fill="none" stroke="url(#edgeGrad_3)" stroke-width="4.60" opacity="0.57" stroke-linecap="round" stroke-dasharray="18.1 9.1"/>
<polygon points="498.1,592.6 491.5,589.3 496.8,585.3" fill="#1f8fcd" opacity="0.67"/>
<path d="M 440.8 181.4 Q 490.3 227.2 539.8 181.4" fill="none" stroke="url(#edgeGrad_4)" stroke-width="2.69" opacity="0.77" stroke-linecap="round" stroke-dasharray="30.2 7.6"/>
<path d="M 440.8 181.4 Q 490.3 228.6 539.8 181.4" fill="none" stroke="url(#edgeGrad_4)" stroke-width="2.69" opacity="0.83" stroke-linecap="round" stroke-dasharray="30.2 7.6"/>
<polygon points="539.8,181.4 537.2,188.5 532.5,183.6" fill="#2475f3" opacity="0.90"/>
<path d="M 339.9 532.0 Q 285.6 507.0 344.9 499.8" fill="none" stroke="url(#edgeGrad_5)" stroke-width="2.78" opacity="0.77" stroke-linecap="round" stroke-dasharray="30.2 7.6"/>
<path d="M 339.9 532.0 Q 287.1 507.2 344.9 499.8" fill="none" stroke="url(#edgeGrad_5)" stroke-width="2.78" opacity="0.83" stroke-linecap="round" stroke-dasharray="30.2 7.6"/>
<polygon points="344.9,499.8 338.6,504.0 337.7,497.2" fill="#2498f3" opacity="0.90"/>
<path d="M 269.0 592.6 Q 248.4 626.6 227.8 592.6" fill="none" stroke="url(#edgeGrad_6)" stroke-width="4.54" opacity="0.52" stroke-linecap="round" stroke-dasharray="18.1 9.1"/>
<polygon points="227.8,592.6 234.0,596.5 228.4,599.9" fill="#2357bd" opacity="0.61"/>
<path d="M 592.6 234.2 Q 576.3 294.8 592.6 355.4" fill="none" stroke="url(#edgeGrad_7)" stroke-width="2.68" opacity="0.77" stroke-linecap="round" stroke-dasharray="30.2 7.6"/>
<path d="M 592.6 234.2 Q 574.8 294.8 592.6 355.4" fill="none" stroke="url(#edgeGrad_7)" stroke-width="2.68" opacity="0.83" stroke-linecap="round" stroke-dasharray="30.2 7.6"/>
<polygon points="592.6,355.4 587.5,349.9 594.0,348.0" fill="#24a5f3" opacity="0.90"/>
<path d="M 197.8 273.0 Q 287.5 389.9 306.9 535.9" fill="none" stroke="url(#edgeGrad_8)" stroke-width="2.73" opacity="0.77" stroke-linecap="round" stroke-dasharray="30.2 7.6"/>
<path d="M 197.8 273.0 Q 286.1 390.4 306.9 535.9" fill="none" stroke="url(#edgeGrad_8)" stroke-width="2.73" opacity="0.83" stroke-linecap="round" stroke-dasharray="30.2 7.6"/>
<polygon points="306.9,535.9 302.6,529.6 309.3,528.7" fill="#24aef3" opacity="0.90"/>
<path d="M 540.1 181.4 Q 490.5 144.0 440.8 181.4" fill="none" stroke="url(#edgeGrad_9)" stroke-width="2.70" opacity="0.77" stroke-linecap="round" stroke-dasharray="30.2 7.6"/>
<path d="M 540.1 181.4 Q 490.5 142.5 440.8 181.4" fill="none" stroke="url(#edgeGrad_9)" stroke-width="2.70" opacity="0.83" stroke-linecap="round" stroke-dasharray="30.2 7.6"/>
<polygon points="440.8,181.4 444.1,174.6 448.3,180.0" fill="#24c4f3" opacity="0.90"/>
<path d="M 198.9 275.6 Q 296.1 387.8 306.9 535.9" fill="none" stroke="url(#edgeGrad_10)" stroke-width="2.72" opacity="0.77" stroke-linecap="round" stroke-dasharray="30.2 7.6"/>
<path d="M 198.9 275.6 Q 294.7 388.4 306.9 535.9" fill="none" stroke="url(#edgeGrad_10)" stroke-width="2.72" opacity="0.83" stroke-linecap="round" stroke-dasharray="30.2 7.6"/>
<polygon points="306.9,535.9 303.0,529.4 309.7,528.9" fill="#24aef3" opacity="0.90"/>
<path d="M 306.6 448.1 Q 271.0 469.2 242.5 439.1" fill="none" stroke="url(#edgeGrad_11)" stroke-width="4.48" opacity="0.51" stroke-linecap="round" stroke-dasharray="18.1 9.1"/>
<polygon points="242.5,439.1 249.4,441.6 244.6,446.2" fill="#2458b9" opacity="0.59"/>
<path d="M 242.5 439.1 Q 283.9 376.5 306.6 448.1" fill="none" stroke="url(#edgeGrad_12)" stroke-width="4.47" opacity="0.53" stroke-linecap="round" stroke-dasharray="18.1 9.1"/>
<polygon points="306.6,448.1 301.5,442.8 307.8,440.9" fill="#227bc0" opacity="0.62"/>
<path d="M 592.6 233.9 Q 531.7 294.7 592.6 355.4" fill="none" stroke="url(#edgeGrad_13)" stroke-width="2.50" opacity="0.66" stroke-linecap="round" stroke-dasharray="30.2 7.6"/>
<path d="M 592.6 233.9 Q 530.4 294.7 592.6 355.4" fill="none" stroke="url(#edgeGrad_13)" stroke-width="2.50" opacity="0.72" stroke-linecap="round" stroke-dasharray="30.2 7.6"/>
<polygon points="592.6,355.4 585.6,353.1 590.2,348.4" fill="#1a99e7" opacity="0.78"/>
<path d="M 592.6 355.4 Q 649.0 294.8 592.6 234.2" fill="none" stroke="url(#edgeGrad_14)" stroke-width="4.13" opacity="0.51" stroke-linecap="round" stroke-dasharray="18.1 9.1"/>
<polygon points="592.6,234.2 599.3,236.7 594.6,241.1" fill="#245eba" opacity="0.60"/>
<path d="M 498.1 592.6 Q 444.9 632.1 391.7 592.6" fill="none" stroke="url(#edgeGrad_16)" stroke-width="2.80" opacity="0.77" stroke-linecap="round" stroke-dasharray="30.2 7.6"/>
<path d="M 498.1 592.6 Q 444.9 630.6 391.7 592.6" fill="none" stroke="url(#edgeGrad_16)" stroke-width="2.80" opacity="0.83" stroke-linecap="round" stroke-dasharray="30.2 7.6"/>
<polygon points="391.7,592.6 399.3,593.9 395.2,599.4" fill="#24aef3" opacity="0.90"/>
<path d="M 306.9 535.9 Q 187.4 432.9 198.9 275.6" fill="none" stroke="url(#edgeGrad_17)" stroke-width="2.74" opacity="0.77" stroke-linecap="round" stroke-dasharray="30.2 7.6"/>
<path d="M 306.9 535.9 Q 188.8 432.3 198.9 275.6" fill="none" stroke="url(#edgeGrad_17)" stroke-width="2.74" opacity="0.83" stroke-linecap="round" stroke-dasharray="30.2 7.6"/>
<polygon points="198.9,275.6 201.8,282.6 195.1,282.1" fill="#24b9f3" opacity="0.90"/>
<path d="M 237.7 455.9 Q 397.9 453.1 501.9 574.9" fill="none" stroke="url(#edgeGrad_18)" stroke-width="4.34" opacity="0.50" stroke-linecap="round" stroke-dasharray="18.1 9.1"/>
<polygon points="501.9,574.9 495.2,572.1 500.2,567.9" fill="#2483b8" opacity="0.59"/>
<path d="M 501.9 574.9 Q 343.0 575.0 237.7 455.9" fill="none" stroke="url(#edgeGrad_20)" stroke-width="2.71" opacity="0.76" stroke-linecap="round" stroke-dasharray="30.2 7.6"/>
<path d="M 501.9 574.9 Q 343.6 573.7 237.7 455.9" fill="none" stroke="url(#edgeGrad_20)" stroke-width="2.71" opacity="0.83" stroke-linecap="round" stroke-dasharray="30.2 7.6"/>
<polygon points="237.7,455.9 244.7,458.7 239.6,463.2" fill="#246cf3" opacity="0.90"/>
<path d="M 306.9 535.9 Q 224.8 415.9 197.8 273.0" fill="none" stroke="url(#edgeGrad_21)" stroke-width="2.82" opacity="0.77" stroke-linecap="round" stroke-dasharray="30.2 7.6"/>
<path d="M 306.9 535.9 Q 226.2 415.3 197.8 273.0" fill="none" stroke="url(#edgeGrad_21)" stroke-width="2.82" opacity="0.83" stroke-linecap="round" stroke-dasharray="30.2 7.6"/>
<polygon points="197.8,273.0 202.5,279.0 195.8,280.3" fill="#249df3" opacity="0.90"/>
<path d="M 181.4 368.9 Q 115.9 322.6 181.4 276.2" fill="none" stroke="url(#edgeGrad_22)" stroke-width="2.77" opacity="0.77" stroke-linecap="round" stroke-dasharray="30.2 7.6"/>
<path d="M 181.4 368.9 Q 117.4 322.6 181.4 276.2" fill="none" stroke="url(#edgeGrad_22)" stroke-width="2.77" opacity="0.83" stroke-linecap="round" stroke-dasharray="30.2 7.6"/>
<polygon points="181.4,276.2 177.8,283.0 173.9,277.4" fill="#249df3" opacity="0.90"/>
<path d="M 592.6 355.4 Q 640.0 294.7 592.6 233.9" fill="none" stroke="url(#edgeGrad_23)" stroke-width="2.68" opacity="0.77" stroke-linecap="round" stroke-dasharray="30.2 7.6"/>
<path d="M 592.6 355.4 Q 641.4 294.7 592.6 233.9" fill="none" stroke="url(#edgeGrad_23)" stroke-width="2.68" opacity="0.83" stroke-linecap="round" stroke-dasharray="30.2 7.6"/>
<polygon points="592.6,233.9 599.4,237.1 594.1,241.3" fill="#24aff3" opacity="0.90"/>
<path d="M 539.8 181.4 Q 490.3 157.8 440.8 181.4" fill="none" stroke="url(#edgeGrad_24)" stroke-width="2.64" opacity="0.77" stroke-linecap="round" stroke-dasharray="30.2 7.6"/>
<path d="M 539.8 181.4 Q 490.3 156.3 440.8 181.4" fill="none" stroke="url(#edgeGrad_24)" stroke-width="2.64" opacity="0.83" stroke-linecap="round" stroke-dasharray="30.2 7.6"/>
<polygon points="440.8,181.4 445.4,175.4 448.4,181.5" fill="#24c4f3" opacity="0.90"/>
<path d="M 181.4 279.0 Q 201.3 324.0 181.4 368.9" fill="none" stroke="url(#edgeGrad_25)" stroke-width="4.43" opacity="0.52" stroke-linecap="round" stroke-dasharray="18.1 9.1"/>
<polygon points="181.4,368.9 181.1,361.6 187.1,364.2" fill="#2359bd" opacity="0.61"/>
<path d="M 344.9 499.8 Q 411.5 526.7 339.9 532.0" fill="none" stroke="url(#edgeGrad_26)" stroke-width="2.86" opacity="0.77" stroke-linecap="round" stroke-dasharray="30.2 7.6"/>
<path d="M 344.9 499.8 Q 410.0 526.5 339.9 532.0" fill="none" stroke="url(#edgeGrad_26)" stroke-width="2.86" opacity="0.83" stroke-linecap="round" stroke-dasharray="30.2 7.6"/>
<polygon points="339.9,532.0 346.5,528.0 347.0,534.9" fill="#24aef3" opacity="0.90"/>
<path d="M 440.8 181.4 Q 490.5 221.9 540.1 181.4" fill="none" stroke="url(#edgeGrad_27)" stroke-width="2.58" opacity="0.77" stroke-linecap="round" stroke-dasharray="30.2 7.6"/>
<path d="M 440.8 181.4 Q 490.5 223.4 540.1 181.4" fill="none" stroke="url(#edgeGrad_27)" stroke-width="2.58" opacity="0.83" stroke-linecap="round" stroke-dasharray="30.2 7.6"/>
<polygon points="540.1,181.4 537.1,188.2 532.9,183.1" fill="#24aff3" opacity="0.90"/>
<path d="M 181.4 276.2 Q 220.4 322.6 181.4 368.9" fill="none" stroke="url(#edgeGrad_28)" stroke-width="2.74" opacity="0.77" stroke-linecap="round" stroke-dasharray="30.2 7.6"/>
<path d="M 181.4 276.2 Q 218.9 322.6 181.4 368.9" fill="none" stroke="url(#edgeGrad_28)" stroke-width="2.74" opacity="0.83" stroke-linecap="round" stroke-dasharray="30.2 7.6"/>
<polygon points="181.4,368.9 183.1,361.5 188.4,365.8" fill="#246df3" opacity="0.90"/>
<path d="M 181.4 368.9 Q 152.3 324.0 181.4 279.0" fill="none" stroke="url(#edgeGrad_30)" stroke-width="2.62" opacity="0.64" stroke-linecap="round" stroke-dasharray="30.2 7.6"/>
<path d="M 181.4 368.9 Q 153.8 324.0 181.4 279.0" fill="none" stroke="url(#edgeGrad_30)" stroke-width="2.62" opacity="0.70" stroke-linecap="round" stroke-dasharray="30.2 7.6"/>
<polygon points="181.4,279.0 180.7,286.5 175.0,282.9" fill="#1aabe3" opacity="0.76"/>
<path d="M 316.4 483.3 Q 305.6 571.1 217.5 563.4" fill="none" stroke="url(#edgeGrad_31)" stroke-width="2.75" opacity="0.77" stroke-linecap="round" stroke-dasharray="30.2 7.6"/>
<path d="M 316.4 483.3 Q 304.6 569.9 217.5 563.4" fill="none" stroke="url(#edgeGrad_31)" stroke-width="2.75" opacity="0.83" stroke-linecap="round" stroke-dasharray="30.2 7.6"/>
<polygon points="217.5,563.4 224.5,560.6 224.0,567.3" fill="#246af3" opacity="0.90"/>
<path d="M 181.4 492.3 Q 199.6 519.2 181.4 546.2" fill="none" stroke="url(#edgeGrad_32)" stroke-width="2.72" opacity="0.69" stroke-linecap="round" stroke-dasharray="30.2 7.6"/>
<path d="M 181.4 492.3 Q 198.1 519.2 181.4 546.2" fill="none" stroke="url(#edgeGrad_32)" stroke-width="2.72" opacity="0.75" stroke-linecap="round" stroke-dasharray="30.2 7.6"/>
<polygon points="181.4,546.2 182.2,538.7 187.9,542.3" fill="#1d62ea" opacity="0.81"/>
<circle cx="330.4" cy="592.6" r="79.8" fill="url(#glowGrad_c0_0)" opacity="0.16"/>
<circle cx="330.4" cy="592.6" r="61.4" fill="url(#nodeGrad_c0_0)" stroke="#4eb1e3" stroke-width="3.1"/>
<circle cx="321.2" cy="583.4" r="18.4" fill="#c9dde8" opacity="0.60"/>
<polygon points="330.4,669.1 326.7,661.2 334.0,661.2" fill="#cc3333" opacity="0.25"/>
<path d="M 395.5 527.5 A 92.0 92.0 0 1 1 265.3 527.5" fill="none" stroke="#e5b219" stroke-width="2.3" opacity="0.6" stroke-linecap="round"/>
<polygon points="266.9,525.9 265.6,529.8 263.0,527.2" fill="#e5b219" opacity="0.6"/>
<circle cx="181.4" cy="592.6" r="60.3" fill="url(#glowGrad_c0_1)" opacity="0.15"/>
<circle cx="181.4" cy="592.6" r="46.4" fill="url(#nodeGrad_c0_1)" stroke="#4f81e2" stroke-width="3.0" stroke-dasharray="3.4 2.7"/>
<circle cx="174.4" cy="585.6" r="13.9" fill="#c9d3e8" opacity="0.60"/>
<circle cx="181.4" cy="592.6" r="60.3" fill="none" stroke="#525dc5" stroke-width="1.5" opacity="0.11" stroke-dasharray="4.5 4.5"/>
<path d="M 230.6 543.4 A 69.6 69.6 0 1 1 132.2 543.4" fill="none" stroke="#e5b219" stroke-width="2.3" opacity="0.6" stroke-linecap="round"/>
<polygon points="133.8,541.8 132.5,545.6 129.9,543.1" fill="#e5b219" opacity="0.6"/>
<circle cx="181.4" cy="233.3" r="59.5" fill="url(#glowGrad_c0_2)" opacity="0.15"/>
<circle cx="181.4" cy="233.3" r="45.7" fill="url(#nodeGrad_c0_2)" stroke="#4fb9e2" stroke-width="3.0" stroke-dasharray="3.4 2.7"/>
<circle cx="174.5" cy="226.4" r="13.7" fill="#c9dfe8" opacity="0.60"/>
<polygon points="181.4,294.2 177.8,286.3 185.0,286.3" fill="#cc3333" opacity="0.34"/>
<path d="M 229.9 184.8 A 68.6 68.6 0 1 1 132.9 184.8" fill="none" stroke="#e5b219" stroke-width="2.3" opacity="0.6" stroke-linecap="round"/>
<polygon points="134.5,183.2 133.2,187.0 130.6,184.5" fill="#e5b219" opacity="0.6"/>
<circle cx="181.4" cy="233.3" r="42.9" fill="url(#nodeGrad_c0_3)" stroke="#4fa5e2" stroke-width="3.0" stroke-dasharray="4.5 1.6"/>
<circle cx="175.0" cy="226.9" r="10.6" fill="#c9dbe8" opacity="0.49"/>
<path d="M 226.9 187.8 A 64.4 64.4 0 1 1 135.9 187.8" fill="none" stroke="#e5b219" stroke-width="2.3" opacity="0.6" stroke-linecap="round"/>
<polygon points="137.5,186.2 136.2,190.0 133.6,187.4" fill="#e5b219" opacity="0.6"/>
<circle cx="541.1" cy="592.6" r="43.0" fill="url(#nodeGrad_c0_4)" stroke="#4fade2" stroke-width="3.0" stroke-dasharray="2.9 3.1"/>
<circle cx="534.7" cy="586.1" r="9.8" fill="#c9dde8" opacity="0.45"/>
<path d="M 586.8 547.0 A 64.5 64.5 0 1 1 495.5 547.0" fill="none" stroke="#e5b219" stroke-width="2.3" opacity="0.6" stroke-linecap="round"/>
<polygon points="497.1,545.4 495.8,549.2 493.3,546.6" fill="#e5b219" opacity="0.6"/>
<circle cx="181.4" cy="430.6" r="80.2" fill="url(#glowGrad_c0_5)" opacity="0.16"/>
<circle cx="181.4" cy="430.6" r="61.7" fill="url(#nodeGrad_c0_5)" stroke="#4e82e3" stroke-width="3.1" stroke-dasharray="2.3 3.7"/>
<circle cx="172.2" cy="421.3" r="18.5" fill="#c9d4e8" opacity="0.60"/>
<path d="M 246.8 365.2 A 92.5 92.5 0 1 1 116.0 365.2" fill="none" stroke="#e5b219" stroke-width="2.3" opacity="0.6" stroke-linecap="round"/>
<polygon points="117.6,363.6 116.3,367.4 113.7,364.8" fill="#e5b219" opacity="0.6"/>
<circle cx="352.1" cy="454.5" r="59.6" fill="url(#glowGrad_c0_6)" opacity="0.15"/>
<circle cx="352.1" cy="454.5" r="45.9" fill="url(#nodeGrad_c0_6)" stroke="#4fa1e2" stroke-width="3.0" stroke-dasharray="4.2 1.8"/>
<circle cx="345.2" cy="447.6" r="13.8" fill="#c9dae8" opacity="0.60"/>
<circle cx="352.1" cy="454.5" r="59.6" fill="none" stroke="#5276c5" stroke-width="1.5" opacity="0.11" stroke-dasharray="4.5 4.5"/>
<path d="M 400.7 405.8 A 68.8 68.8 0 1 1 303.4 405.8" fill="none" stroke="#e5b219" stroke-width="2.3" opacity="0.6" stroke-linecap="round"/>
<polygon points="305.0,404.2 303.7,408.0 301.2,405.5" fill="#e5b219" opacity="0.6"/>
<circle cx="592.6" cy="400.9" r="45.5" fill="url(#nodeGrad_c1_0)" stroke="#4fabe2" stroke-width="3.0"/>
<circle cx="585.8" cy="394.1" r="9.7" fill="#c9dce8" opacity="0.43"/>
<polygon points="592.6,461.5 589.0,453.7 596.2,453.7" fill="#cc3333" opacity="0.25"/>
<path d="M 640.8 352.7 A 68.2 68.2 0 1 1 544.3 352.7" fill="none" stroke="#e5b219" stroke-width="2.3" opacity="0.6" stroke-linecap="round"/>
<polygon points="546.0,351.1 544.7,354.9 542.1,352.4" fill="#e5b219" opacity="0.6"/>
<circle cx="592.6" cy="181.4" r="68.2" fill="url(#glowGrad_c1_1)" opacity="0.15"/>
<circle cx="592.6" cy="181.4" r="52.5" fill="url(#nodeGrad_c1_1)" stroke="#4bc2e6" stroke-width="3.1" stroke-dasharray="2.5 3.6"/>
<circle cx="584.7" cy="173.5" r="15.7" fill="#c9e0e8" opacity="0.60"/>
<circle cx="592.6" cy="181.4" r="73.4" fill="none" stroke="#ed9c2a" stroke-width="2.3" opacity="0.45"/>
<polygon points="592.6,249.0 589.0,241.1 596.2,241.1" fill="#cc3333" opacity="0.21"/>
<path d="M 648.2 125.8 A 78.7 78.7 0 1 1 536.9 125.8" fill="none" stroke="#e5b219" stroke-width="2.3" opacity="0.6" stroke-linecap="round"/>
<polygon points="538.6,124.2 537.3,128.0 534.7,125.4" fill="#e5b219" opacity="0.6"/>
<circle cx="592.6" cy="181.4" r="60.8" fill="url(#glowGrad_c1_2)" opacity="0.15"/>
<circle cx="592.6" cy="181.4" r="46.8" fill="url(#nodeGrad_c1_2)" stroke="#4f9ce2" stroke-width="3.0"/>
<circle cx="585.6" cy="174.4" r="14.0" fill="#c9d9e8" opacity="0.60"/>
<path d="M 642.2 131.8 A 70.2 70.2 0 1 1 543.0 131.8" fill="none" stroke="#e5b219" stroke-width="2.3" opacity="0.6" stroke-linecap="round"/>
<polygon points="544.6,130.2 543.3,134.0 540.7,131.5" fill="#e5b219" opacity="0.6"/>
<circle cx="592.6" cy="181.4" r="68.7" fill="url(#glowGrad_c1_3)" opacity="0.15"/>
<circle cx="592.6" cy="181.4" r="52.8" fill="url(#nodeGrad_c1_3)" stroke="#4f88e2" stroke-width="3.1" stroke-dasharray="1.8 4.2"/>
<circle cx="584.7" cy="173.5" r="15.8" fill="#c9d5e8" opacity="0.60"/>
<path d="M 648.6 125.4 A 79.2 79.2 0 1 1 536.6 125.4" fill="none" stroke="#e5b219" stroke-width="2.3" opacity="0.6" stroke-linecap="round"/>
<polygon points="538.2,123.8 536.9,127.6 534.3,125.1" fill="#e5b219" opacity="0.6"/>
<circle cx="394.9" cy="181.4" r="59.7" fill="url(#glowGrad_c1_4)" opacity="0.15"/>
<circle cx="394.9" cy="181.4" r="45.9" fill="url(#nodeGrad_c1_4)" stroke="#4fc1e2" stroke-width="3.0"/>
<circle cx="388.0" cy="174.5" r="13.8" fill="#c9e1e8" opacity="0.60"/>
<polygon points="394.9,120.4 391.3,128.2 398.5,128.2" fill="#33cc33" opacity="0.23"/>
<path d="M 443.6 132.7 A 68.9 68.9 0 1 1 346.2 132.7" fill="none" stroke="#e5b219" stroke-width="2.3" opacity="0.6" stroke-linecap="round"/>
<polygon points="347.8,131.1 346.5,134.9 343.9,132.4" fill="#e5b219" opacity="0.6"/>
  <!-- Vignette overlay -->
  <rect width="100%" height="100%" fill="url(#vignette)"/>
</svg>