<?xml version="1.0" encoding="UTF-8"?>
<svg xmlns="http://www.w3.org/2000/svg" viewBox="0 0 774 774" width="774" height="774">
  <rect width="100%" height="100%" fill="#313244"/>
  <path d="M 406.6 570.3 Q 332.2 491.7 224.9 477.4" fill="none" stroke="#a6e3a1" stroke-width="2.75" stroke-linecap="round"/>
<path d="M 401.1 593.1 Q 317.6 551.1 234.1 593.1" fill="none" stroke="#a6e3a1" stroke-width="2.87" stroke-linecap="round"/>
<path d="M 501.1 593.1 Q 523.4 664.4 545.6 593.1" fill="none" stroke="#a6e3a1" stroke-width="2.75" stroke-linecap="round"/>
<path d="M 571.3 202.5 Q 607.0 262.1 543.9 232.9" fill="none" stroke="#a6e3a1" stroke-width="5.56" stroke-linecap="round"/>
<path d="M 569.7 200.9 Q 439.6 423.0 217.5 553.1" fill="none" stroke="#a6e3a1" stroke-width="5.68" stroke-linecap="round"/>
<path d="M 576.2 206.2 Q 495.1 400.7 347.5 551.0" fill="none" stroke="#a6e3a1" stroke-width="5.56" stroke-linecap="round"/>
<path d="M 234.1 593.1 Q 317.6 571.6 401.1 593.1" fill="none" stroke="#585b70" stroke-width="2.51" stroke-linecap="round"/>
<circle cx="510.7" cy="269.8" r="39.7" fill="none" stroke="#a6e3a1" stroke-width="15.9"/>
<circle cx="510.7" cy="269.8" r="19.8" fill="none" stroke="#a6e3a1" stroke-width="15.9"/>
<circle cx="599.3" cy="171.3" r="41.9" fill="#a6e3a1"/>
<circle cx="177.5" cy="593.1" r="56.6" fill="#585b70"/>
<circle cx="599.3" cy="417.2" r="42.5" fill="none" stroke="#585b70" stroke-width="8.5"/>
<circle cx="599.3" cy="417.2" r="31.9" fill="none" stroke="#585b70" stroke-width="8.5"/>
<circle cx="599.3" cy="417.2" r="21.3" fill="none" stroke="#585b70" stroke-width="8.5"/>
<circle cx="599.3" cy="417.2" r="10.6" fill="none" stroke="#585b70" stroke-width="8.5"/>
<circle cx="362.7" cy="171.3" r="26.8" fill="none" stroke="#585b70" stroke-width="5.4"/>
<circle cx="362.7" cy="171.3" r="20.1" fill="none" stroke="#585b70" stroke-width="5.4"/>
<circle cx="362.7" cy="171.3" r="13.4" fill="none" stroke="#585b70" stroke-width="5.4"/>
<circle cx="362.7" cy="171.3" r="6.7" fill="none" stroke="#585b70" stroke-width="5.4"/>
<circle cx="177.5" cy="171.3" r="40.3" fill="none" stroke="#585b70" stroke-width="10.7"/>
<circle cx="177.5" cy="171.3" r="26.8" fill="none" stroke="#585b70" stroke-width="10.7"/>
<circle cx="177.5" cy="171.3" r="13.4" fill="none" stroke="#585b70" stroke-width="10.7"/>
<circle cx="599.3" cy="593.1" r="53.7" fill="#585b70"/>
<circle cx="177.5" cy="301.8" r="24.1" fill="none" stroke="#89dceb" stroke-width="9.6"/>
<circle cx="177.5" cy="301.8" r="12.0" fill="none" stroke="#89dceb" stroke-width="9.6"/>
<circle cx="451.1" cy="593.1" r="42.8" fill="none" stroke="#a6e3a1" stroke-width="11.4"/>
<circle cx="451.1" cy="593.1" r="28.6" fill="none" stroke="#a6e3a1" stroke-width="11.4"/>
<circle cx="451.1" cy="593.1" r="14.3" fill="none" stroke="#a6e3a1" stroke-width="11.4"/>
<circle cx="319.6" cy="593.1" r="50.5" fill="#a6e3a1"/>
<circle cx="177.5" cy="453.2" r="53.2" fill="#585b70"/>
</svg>