<?xml version="1.0" encoding="UTF-8"?>
<svg xmlns="http://www.w3.org/2000/svg" viewBox="0 0 774 774" width="774" height="774">
  <rect width="100%" height="100%" fill="#45475a"/>
  <path d="M 544.1 593.8 Q 388.3 543.4 232.6 593.8" fill="none" stroke="#89b4fa" stroke-width="4.39" stroke-linecap="round"/>
<path d="M 544.1 593.8 Q 391.4 550.3 238.7 593.8" fill="none" stroke="#89b4fa" stroke-width="4.66" stroke-linecap="round"/>
<path d="M 233.6 175.1 Q 332.4 154.7 431.2 175.1" fill="none" stroke="#94e2d5" stroke-width="4.25" stroke-linecap="round"/>
<path d="M 232.6 593.8 Q 388.3 665.1 544.1 593.8" fill="none" stroke="#94e2d5" stroke-width="4.35" stroke-linecap="round"/>
<path d="M 598.6 434.7 Q 640.5 487.0 598.6 539.3" fill="none" stroke="#11111b" stroke-width="4.32" stroke-linecap="round"/>
<path d="M 380.9 593.8 Q 309.8 623.2 238.7 593.8" fill="none" stroke="#94e2d5" stroke-width="4.30" stroke-linecap="round"/>
<path d="M 179.8 352.6 Q 127.9 288.3 179.8 224.0" fill="none" stroke="#89b4fa" stroke-width="4.48" stroke-linecap="round"/>
<path d="M 179.8 447.5 Q 219.4 494.3 179.8 541.1" fill="none" stroke="#89b4fa" stroke-width="4.64" stroke-linecap="round"/>
<path d="M 563.8 175.1 Q 398.7 90.7 233.6 175.1" fill="none" stroke="#94e2d5" stroke-width="4.49" stroke-linecap="round"/>
<path d="M 179.8 534.9 Q 155.0 491.2 179.8 447.5" fill="none" stroke="#b4befe" stroke-width="4.41" stroke-linecap="round"/>
<path d="M 308.4 175.1 Q 271.0 118.2 233.6 175.1" fill="none" stroke="#89b4fa" stroke-width="4.56" stroke-linecap="round"/>
<path d="M 374.9 200.2 Q 429.5 335.2 570.3 372.2" fill="none" stroke="#89b4fa" stroke-width="4.31" stroke-linecap="round"/>
<path d="M 368.3 438.3 Q 273.4 469.0 225.3 556.3" fill="none" stroke="#89b4fa" stroke-width="4.54" stroke-linecap="round"/>
<path d="M 463.4 219.6 Q 499.4 317.2 412.2 374.1" fill="none" stroke="#11111b" stroke-width="4.44" stroke-linecap="round"/>
<path d="M 471.8 221.5 Q 494.9 394.3 426.0 554.5" fill="none" stroke="#11111b" stroke-width="3.83" stroke-linecap="round"/>
<circle cx="346.4" cy="175.1" r="38.0" fill="#89b4fa"/>
<circle cx="399.5" cy="412.5" r="40.5" fill="#89b4fa"/>
<circle cx="179.8" cy="175.1" r="48.9" fill="#fab387"/>
<circle cx="598.6" cy="593.8" r="43.6" fill="none" stroke="#89b4fa" stroke-width="17.4"/>
<circle cx="598.6" cy="593.8" r="21.8" fill="none" stroke="#89b4fa" stroke-width="17.4"/>
<circle cx="179.8" cy="175.1" r="53.8" fill="#94e2d5"/>
<circle cx="598.6" cy="397.1" r="37.6" fill="#11111b"/>
<circle cx="179.8" cy="400.0" r="37.9" fill="none" stroke="#89b4fa" stroke-width="15.2"/>
<circle cx="179.8" cy="400.0" r="19.0" fill="none" stroke="#89b4fa" stroke-width="15.2"/>
<circle cx="598.6" cy="175.1" r="27.8" fill="none" stroke="#94e2d5" stroke-width="11.1"/>
<circle cx="598.6" cy="175.1" r="13.9" fill="none" stroke="#94e2d5" stroke-width="11.1"/>
<circle cx="179.8" cy="593.8" r="47.1" fill="none" stroke="#b4befe" stroke-width="18.8"/>
<circle cx="179.8" cy="593.8" r="23.6" fill="none" stroke="#b4befe" stroke-width="18.8"/>
<circle cx="478.2" cy="175.1" r="37.5" fill="none" stroke="#11111b" stroke-width="15.0"/>
<circle cx="478.2" cy="175.1" r="18.8" fill="none" stroke="#11111b" stroke-width="15.0"/>
<circle cx="179.8" cy="593.8" r="52.7" fill="#94e2d5"/>
<circle cx="420.6" cy="593.8" r="39.7" fill="#94e2d5"/>
</svg>