<?xml version="1.0" encoding="UTF-8"?>
<svg xmlns="http://www.w3.org/2000/svg" viewBox="0 0 774 774" width="774" height="774">
  <rect width="100%" height="100%" fill="#181825"/>
  <path d="M 232.9 590.4 Q 307.4 648.1 381.9 590.4" fill="none" stroke="#cba6f7" stroke-width="2.75" stroke-linecap="round"/>
<path d="M 547.4 590.4 Q 390.1 520.6 232.9 590.4" fill="none" stroke="#f5c2e7" stroke-width="2.75" stroke-linecap="round"/>
<path d="M 370.1 292.7 Q 315.9 210.2 217.9 198.7" fill="none" stroke="#cba6f7" stroke-width="3.11" stroke-linecap="round"/>
<path d="M 431.7 309.7 Q 483.8 352.7 534.7 308.2" fill="none" stroke="#cba6f7" stroke-width="3.24" stroke-linecap="round"/>
<path d="M 403.3 343.1 Q 342.3 449.1 431.5 532.8" fill="none" stroke="#cba6f7" stroke-width="3.24" stroke-linecap="round"/>
<path d="M 425.4 329.6 Q 464.9 427.1 569.8 433.7" fill="none" stroke="#cba6f7" stroke-width="2.99" stroke-linecap="round"/>
<path d="M 377.8 336.3 Q 247.6 404.1 211.6 546.5" fill="none" stroke="#cba6f7" stroke-width="3.24" stroke-linecap="round"/>
<path d="M 176.9 381.7 Q 266.6 301.7 176.9 221.6" fill="none" stroke="#a6e3a1" stroke-width="2.99" stroke-linecap="round"/>
<path d="M 213.0 409.4 Q 385.9 407.4 536.7 322.6" fill="none" stroke="#a6e3a1" stroke-width="3.11" stroke-linecap="round"/>
<path d="M 208.2 439.4 Q 246.4 581.0 391.3 558.6" fill="none" stroke="#a6e3a1" stroke-width="3.11" stroke-linecap="round"/>
<path d="M 176.9 456.4 Q 134.9 495.4 176.9 534.4" fill="none" stroke="#a6e3a1" stroke-width="3.11" stroke-linecap="round"/>
<path d="M 467.8 539.3 Q 541.7 462.9 565.6 359.3" fill="none" stroke="#89dceb" stroke-width="2.75" stroke-linecap="round"/>
<circle cx="176.9" cy="173.5" r="48.1" fill="#a6e3a1"/>
<circle cx="593.9" cy="307.3" r="59.2" fill="#89dceb"/>
<circle cx="176.9" cy="173.5" r="22.3" fill="none" stroke="#fab387" stroke-width="8.9"/>
<circle cx="176.9" cy="173.5" r="11.2" fill="none" stroke="#fab387" stroke-width="8.9"/>
<circle cx="176.9" cy="173.5" r="22.3" fill="none" stroke="#fab387" stroke-width="8.9"/>
<circle cx="176.9" cy="173.5" r="11.2" fill="none" stroke="#fab387" stroke-width="8.9"/>
<circle cx="440.1" cy="590.4" r="58.2" fill="#89dceb"/>
<circle cx="593.9" cy="590.4" r="39.9" fill="none" stroke="#f5c2e7" stroke-width="10.6"/>
<circle cx="593.9" cy="590.4" r="26.6" fill="none" stroke="#f5c2e7" stroke-width="10.6"/>
<circle cx="593.9" cy="590.4" r="13.3" fill="none" stroke="#f5c2e7" stroke-width="10.6"/>
<circle cx="398.4" cy="310.2" r="28.5" fill="none" stroke="#cba6f7" stroke-width="7.6"/>
<circle cx="398.4" cy="310.2" r="19.0" fill="none" stroke="#cba6f7" stroke-width="7.6"/>
<circle cx="398.4" cy="310.2" r="9.5" fill="none" stroke="#cba6f7" stroke-width="7.6"/>
<circle cx="593.9" cy="451.0" r="29.6" fill="#a6e3a1"/>
<circle cx="593.9" cy="173.5" r="29.2" fill="none" stroke="#a6e3a1" stroke-width="11.7"/>
<circle cx="593.9" cy="173.5" r="14.6" fill="none" stroke="#a6e3a1" stroke-width="11.7"/>
<circle cx="176.9" cy="419.1" r="37.3" fill="#a6e3a1"/>
<circle cx="176.9" cy="590.4" r="44.8" fill="none" stroke="#cba6f7" stroke-width="17.9"/>
<circle cx="176.9" cy="590.4" r="22.4" fill="none" stroke="#cba6f7" stroke-width="17.9"/>
<circle cx="301.2" cy="590.4" r="27.9" fill="#f5c2e7"/>
</svg>